<svg width="22" height="22" viewBox="0 0 22 22" fill="none" xmlns="http://www.w3.org/2000/svg">
<path d="M14.215 3.34356C15.0428 2.45734 15.6028 1.22693 15.4495 0C14.2569 0.0425605 12.8115 0.70006 11.9555 1.58621C11.1881 2.37071 10.5163 3.62451 10.6956 4.82737C12.0263 4.9174 13.3858 4.22835 14.215 3.34356ZM16.7548 11.8168C16.7294 9.06614 18.9326 7.74503 19.0302 7.68119C17.7915 5.81328 15.8625 5.55769 15.1755 5.52886C13.5329 5.35643 11.9728 6.5236 11.1388 6.5236C10.3083 6.5236 9.02362 5.5515 7.66131 5.57761C5.87038 5.60712 4.22018 6.65 3.30037 8.30284C1.43993 11.6279 2.82353 16.5535 4.63642 19.2506C5.52265 20.571 6.57783 22.0521 7.96346 21.9986C9.30102 21.945 9.80526 21.1089 11.419 21.1089C13.0334 21.1089 13.4855 21.9986 14.8979 21.9718C16.335 21.945 17.2446 20.626 18.1233 19.3015C19.14 17.7702 19.5591 16.2877 19.5831 16.2128C19.5522 16.1949 16.7843 15.1061 16.7548 11.8168Z" fill="#3A3A3A"/>
</svg>
