<svg width="48" height="48" viewBox="0 0 48 48" fill="none" xmlns="http://www.w3.org/2000/svg">
<rect width="48" height="48" rx="4" fill="#C9B7CB"/>
<path d="M13.5892 12.5403C13.5884 12.5403 13.5874 12.5403 13.5866 12.5403C13.3029 12.5403 13.036 12.6509 12.8345 12.8519C12.6308 13.0551 12.5186 13.3257 12.5186 13.6138V29.7114C12.5186 30.3017 13.0007 30.7831 13.5934 30.7846C16.0922 30.7906 20.2787 31.3114 23.1668 34.3337V17.4872C23.1668 17.2871 23.1157 17.0991 23.0192 16.9435C20.6488 13.1261 16.0936 12.5461 13.5892 12.5403Z" fill="#541F5C"/>
<path d="M35.4811 29.7115V13.6138C35.4811 13.3257 35.3689 13.0551 35.1652 12.8519C34.9636 12.6509 34.6966 12.5403 34.4131 12.5403C34.4122 12.5403 34.4113 12.5403 34.4105 12.5403C31.9062 12.5462 27.351 13.1262 24.9805 16.9436C24.884 17.0992 24.833 17.2872 24.833 17.4873V34.3337C27.7211 31.3114 31.9076 30.7905 34.4064 30.7846C34.999 30.7831 35.4811 30.3017 35.4811 29.7115Z" fill="#541F5C"/>
<path d="M37.9265 16.2527H37.1481V29.7114C37.1481 31.2186 35.9201 32.4476 34.4106 32.4513C32.2911 32.4564 28.7963 32.8708 26.3213 35.2134C30.6019 34.1653 35.1144 34.8466 37.6862 35.4326C38.0073 35.5058 38.3391 35.4302 38.5964 35.2252C38.8527 35.0206 38.9998 34.7149 38.9998 34.3867V17.326C38.9999 16.7342 38.5183 16.2527 37.9265 16.2527Z" fill="#672C70"/>
<path d="M10.8517 29.7114V16.2527H10.0733C9.48162 16.2527 9 16.7342 9 17.326V34.3864C9 34.7147 9.14707 35.0203 9.40344 35.2249C9.66051 35.4298 9.99202 35.5057 10.3136 35.4323C12.8854 34.8462 17.398 34.165 21.6784 35.2131C19.2035 32.8706 15.7087 32.4563 13.5892 32.4512C12.0798 32.4476 10.8517 31.2186 10.8517 29.7114Z" fill="#672C70"/>
</svg>
