<svg width="24" height="24" viewBox="0 0 24 24" fill="none" xmlns="http://www.w3.org/2000/svg">
<path d="M8 1.99902V4.99902" stroke="#541F5C" stroke-width="1.5" stroke-miterlimit="10" stroke-linecap="round" stroke-linejoin="round"/>
<path d="M16 1.99902V4.99902" stroke="#541F5C" stroke-width="1.5" stroke-miterlimit="10" stroke-linecap="round" stroke-linejoin="round"/>
<path d="M3.5 9.08887H20.5" stroke="#541F5C" stroke-width="1.5" stroke-miterlimit="10" stroke-linecap="round" stroke-linejoin="round"/>
<path d="M19.2071 15.7703L15.6671 19.3103C15.5271 19.4503 15.3971 19.7103 15.3671 19.9003L15.1771 21.2503C15.1071 21.7403 15.4471 22.0803 15.9371 22.0103L17.2871 21.8203C17.4771 21.7903 17.7471 21.6603 17.8771 21.5203L21.4171 17.9803C22.0271 17.3703 22.3171 16.6603 21.4171 15.7603C20.5271 14.8703 19.8171 15.1603 19.2071 15.7703Z" stroke="#541F5C" stroke-width="1.5" stroke-miterlimit="10" stroke-linecap="round" stroke-linejoin="round"/>
<path d="M18.6914 16.2803C18.9914 17.3603 19.8314 18.2003 20.9114 18.5003" stroke="#541F5C" stroke-width="1.5" stroke-miterlimit="10" stroke-linecap="round" stroke-linejoin="round"/>
<path d="M12 22H8C4.5 22 3 20 3 17V8.5C3 5.5 4.5 3.5 8 3.5H16C19.5 3.5 21 5.5 21 8.5V12" stroke="#541F5C" stroke-width="1.5" stroke-miterlimit="10" stroke-linecap="round" stroke-linejoin="round"/>
<path d="M11.9945 13.7002H12.0035" stroke="#541F5C" stroke-width="2" stroke-linecap="round" stroke-linejoin="round"/>
<path d="M8.29529 13.7002H8.30427" stroke="#541F5C" stroke-width="2" stroke-linecap="round" stroke-linejoin="round"/>
<path d="M8.29529 16.7002H8.30427" stroke="#541F5C" stroke-width="2" stroke-linecap="round" stroke-linejoin="round"/>
</svg>
