<svg width="32" height="32" viewBox="0 0 32 32" fill="none" xmlns="http://www.w3.org/2000/svg">
<rect width="32" height="32" rx="4" fill="white"/>
<path d="M12.333 6.83337V9.58337" stroke="#541F5C" stroke-width="1.5" stroke-miterlimit="10" stroke-linecap="round" stroke-linejoin="round"/>
<path d="M19.667 6.83337V9.58337" stroke="#541F5C" stroke-width="1.5" stroke-miterlimit="10" stroke-linecap="round" stroke-linejoin="round"/>
<path d="M8.20801 13.3325H23.7913" stroke="#541F5C" stroke-width="1.5" stroke-miterlimit="10" stroke-linecap="round" stroke-linejoin="round"/>
<path d="M24.25 12.7917V20.5834C24.25 23.3334 22.875 25.1667 19.6667 25.1667H12.3333C9.125 25.1667 7.75 23.3334 7.75 20.5834V12.7917C7.75 10.0417 9.125 8.20837 12.3333 8.20837H19.6667C22.875 8.20837 24.25 10.0417 24.25 12.7917Z" stroke="#541F5C" stroke-width="1.5" stroke-miterlimit="10" stroke-linecap="round" stroke-linejoin="round"/>
<path d="M19.3869 17.5583H19.3951" stroke="#541F5C" stroke-width="1.5" stroke-linecap="round" stroke-linejoin="round"/>
<path d="M19.3869 20.3083H19.3951" stroke="#541F5C" stroke-width="1.5" stroke-linecap="round" stroke-linejoin="round"/>
<path d="M15.9963 17.5583H16.0045" stroke="#541F5C" stroke-width="1.5" stroke-linecap="round" stroke-linejoin="round"/>
<path d="M15.9963 20.3083H16.0045" stroke="#541F5C" stroke-width="1.5" stroke-linecap="round" stroke-linejoin="round"/>
<path d="M12.6027 17.5583H12.6109" stroke="#541F5C" stroke-width="1.5" stroke-linecap="round" stroke-linejoin="round"/>
<path d="M12.6027 20.3083H12.6109" stroke="#541F5C" stroke-width="1.5" stroke-linecap="round" stroke-linejoin="round"/>
</svg>
