<svg width="22" height="22" viewBox="0 0 22 22" fill="none" xmlns="http://www.w3.org/2000/svg">
<g clip-path="url(#clip0_81_240)">
<path d="M16.1221 14.3893C15.9304 14.197 15.7028 14.0444 15.4521 13.9403C15.2013 13.8362 14.9326 13.7826 14.6611 13.7826C14.3897 13.7826 14.1209 13.8362 13.8702 13.9403C13.6195 14.0444 13.3918 14.197 13.2002 14.3893L12.2033 15.3861C11.0809 14.6738 10.041 13.8391 9.10267 12.8974C8.16096 11.9591 7.32627 10.9192 6.61392 9.79676L7.6108 8.79989C7.80308 8.60827 7.95564 8.38059 8.05974 8.12989C8.16384 7.87919 8.21742 7.6104 8.21742 7.33895C8.21742 7.06749 8.16384 6.79871 8.05974 6.54801C7.95564 6.29731 7.80308 6.06962 7.6108 5.87801L5.66517 3.93926C5.47627 3.74634 5.2505 3.59337 5.0013 3.48944C4.7521 3.38551 4.48455 3.33274 4.21455 3.33426C3.94263 3.33359 3.67326 3.3867 3.42195 3.49053C3.17063 3.59436 2.94233 3.74686 2.75017 3.93926L1.81517 4.86739C1.36952 5.34655 1.0369 5.9195 0.841786 6.54411C0.646669 7.16872 0.594008 7.82912 0.687673 8.47676C0.907673 11.0549 2.59892 14.1555 5.20455 16.768C7.81017 19.3805 10.9452 21.0649 13.5233 21.3124C13.7157 21.3227 13.9084 21.3227 14.1008 21.3124C14.6558 21.3357 15.2098 21.248 15.7304 21.0543C16.251 20.8607 16.7278 20.5651 17.1327 20.1849L18.0608 19.2499C18.2532 19.0577 18.4057 18.8294 18.5095 18.5781C18.6134 18.3268 18.6665 18.0574 18.6658 17.7855C18.6673 17.5155 18.6146 17.248 18.5106 16.9988C18.4067 16.7496 18.2537 16.5238 18.0608 16.3349L16.1221 14.3893Z" fill="#38A93D"/>
<path d="M18.2875 3.70565C17.3321 2.74656 16.1962 1.9861 14.9455 1.4681C13.6947 0.950094 12.3538 0.684804 11 0.687521C10.8177 0.687521 10.6428 0.759953 10.5139 0.888885C10.3849 1.01782 10.3125 1.19268 10.3125 1.37502C10.3125 1.55736 10.3849 1.73223 10.5139 1.86116C10.6428 1.99009 10.8177 2.06252 11 2.06252C12.1801 2.06248 13.3485 2.29614 14.4378 2.75001C15.5271 3.20388 16.5157 3.86898 17.3467 4.70693C18.1776 5.54489 18.8343 6.53909 19.279 7.63218C19.7237 8.72528 19.9475 9.89561 19.9375 11.0756C19.9375 11.258 20.0099 11.4329 20.1389 11.5618C20.2678 11.6907 20.4427 11.7631 20.625 11.7631C20.8073 11.7631 20.9822 11.6907 21.1111 11.5618C21.2401 11.4329 21.3125 11.258 21.3125 11.0756C21.3257 9.70748 21.0648 8.35051 20.5453 7.08475C20.0257 5.81899 19.2581 4.67004 18.2875 3.70565V3.70565Z" fill="#38A93D"/>
<path d="M14.3759 7.6381C14.7661 8.0259 15.0747 8.48784 15.2837 8.99672C15.4927 9.50559 15.5978 10.0511 15.5928 10.6012C15.5928 10.7836 15.6652 10.9584 15.7941 11.0874C15.9231 11.2163 16.0979 11.2887 16.2803 11.2887C16.4626 11.2887 16.6375 11.2163 16.7664 11.0874C16.8953 10.9584 16.9678 10.7836 16.9678 10.6012C16.9769 9.87319 16.8413 9.15059 16.569 8.47534C16.2967 7.8001 15.893 7.18564 15.3814 6.66761C14.8697 6.14959 14.2603 5.7383 13.5885 5.45761C12.9167 5.17692 12.1959 5.03241 11.4678 5.03247C11.2854 5.03247 11.1106 5.1049 10.9816 5.23383C10.8527 5.36277 10.7803 5.53763 10.7803 5.71997C10.7803 5.90231 10.8527 6.07718 10.9816 6.20611C11.1106 6.33504 11.2854 6.40747 11.4678 6.40747C12.0096 6.41155 12.5453 6.52233 13.0443 6.73349C13.5432 6.94464 13.9957 7.25203 14.3759 7.6381Z" fill="#38A93D"/>
</g>
<defs>
<clipPath id="clip0_81_240">
<rect width="22" height="22" fill="white"/>
</clipPath>
</defs>
</svg>
