<svg width="24" height="24" viewBox="0 0 24 24" fill="none" xmlns="http://www.w3.org/2000/svg">
<path d="M5.625 10H7.375C9.125 10 10 9.125 10 7.375V5.625C10 3.875 9.125 3 7.375 3H5.625C3.875 3 3 3.875 3 5.625V7.375C3 9.125 3.875 10 5.625 10Z" stroke="#A48AA9" stroke-width="1.5" stroke-miterlimit="10" stroke-linecap="round" stroke-linejoin="round"/>
<path d="M16.625 10H18.375C20.125 10 21 9.125 21 7.375V5.625C21 3.875 20.125 3 18.375 3H16.625C14.875 3 14 3.875 14 5.625V7.375C14 9.125 14.875 10 16.625 10Z" stroke="#A48AA9" stroke-width="1.5" stroke-miterlimit="10" stroke-linecap="round" stroke-linejoin="round"/>
<path d="M16.625 21H18.375C20.125 21 21 20.125 21 18.375V16.625C21 14.875 20.125 14 18.375 14H16.625C14.875 14 14 14.875 14 16.625V18.375C14 20.125 14.875 21 16.625 21Z" stroke="#A48AA9" stroke-width="1.5" stroke-miterlimit="10" stroke-linecap="round" stroke-linejoin="round"/>
<path d="M5.625 21H7.375C9.125 21 10 20.125 10 18.375V16.625C10 14.875 9.125 14 7.375 14H5.625C3.875 14 3 14.875 3 16.625V18.375C3 20.125 3.875 21 5.625 21Z" stroke="#A48AA9" stroke-width="1.5" stroke-miterlimit="10" stroke-linecap="round" stroke-linejoin="round"/>
</svg>
