<svg width="32" height="32" viewBox="0 0 32 32" fill="none" xmlns="http://www.w3.org/2000/svg">
<rect width="32" height="32" rx="4" fill="white"/>
<path d="M25.1663 10.7292V15.4042C25.1663 16.5684 24.7813 17.5492 24.0938 18.2275C23.4155 18.915 22.4347 19.3 21.2705 19.3V20.9592C21.2705 21.5825 20.5738 21.9584 20.0605 21.61L19.1713 21.0234C19.2538 20.7392 19.2905 20.4275 19.2905 20.0975V16.3667C19.2905 14.4967 18.0438 13.25 16.1738 13.25H9.94967C9.82134 13.25 9.70217 13.2592 9.58301 13.2684V10.7292C9.58301 8.39171 11.1413 6.83337 13.4788 6.83337H21.2705C23.608 6.83337 25.1663 8.39171 25.1663 10.7292Z" stroke="#541F5C" stroke-width="1.5" stroke-miterlimit="10" stroke-linecap="round" stroke-linejoin="round"/>
<path d="M19.2905 16.3667V20.0975C19.2905 20.4275 19.2538 20.7391 19.1713 21.0233C18.8322 22.3708 17.7138 23.2142 16.1738 23.2142H13.6805L10.9122 25.0567C10.4997 25.3408 9.94967 25.0383 9.94967 24.5433V23.2142C9.01467 23.2142 8.23551 22.9025 7.69468 22.3617C7.14468 21.8117 6.83301 21.0325 6.83301 20.0975V16.3667C6.83301 14.625 7.91467 13.4242 9.58301 13.2684C9.70217 13.2592 9.82134 13.25 9.94967 13.25H16.1738C18.0438 13.25 19.2905 14.4967 19.2905 16.3667Z" stroke="#541F5C" stroke-width="1.5" stroke-miterlimit="10" stroke-linecap="round" stroke-linejoin="round"/>
</svg>
