<svg width="22" height="22" viewBox="0 0 22 22" fill="none" xmlns="http://www.w3.org/2000/svg">
<path d="M19.25 5.48165C16.1975 5.17915 13.1267 5.02332 10.065 5.02332C8.25 5.02332 6.435 5.11498 4.62 5.29832L2.75 5.48165" stroke="#FD3939" stroke-width="1.5" stroke-linecap="round" stroke-linejoin="round"/>
<path d="M7.79199 4.55581L7.99366 3.35498C8.14033 2.48415 8.25033 1.83331 9.79949 1.83331H12.2012C13.7503 1.83331 13.8695 2.52081 14.007 3.36415L14.2087 4.55581" stroke="#FD3939" stroke-width="1.5" stroke-linecap="round" stroke-linejoin="round"/>
<path d="M17.279 8.37836L16.6832 17.6092C16.5824 19.0484 16.4999 20.1667 13.9424 20.1667H8.05737C5.49987 20.1667 5.41737 19.0484 5.31654 17.6092L4.7207 8.37836" stroke="#FD3939" stroke-width="1.5" stroke-linecap="round" stroke-linejoin="round"/>
<path d="M9.46875 15.125H12.5212" stroke="#FD3939" stroke-width="1.5" stroke-linecap="round" stroke-linejoin="round"/>
<path d="M8.70801 11.4583H13.2913" stroke="#FD3939" stroke-width="1.5" stroke-linecap="round" stroke-linejoin="round"/>
</svg>
