<svg width="48" height="48" viewBox="0 0 48 48" fill="none" xmlns="http://www.w3.org/2000/svg">
<rect width="48" height="48" rx="4" fill="#C9B7CB"/>
<g clip-path="url(#clip0_722_16468)">
<g filter="url(#filter0_f_722_16468)">
<ellipse cx="23.6799" cy="33.9872" rx="13.7463" ry="2.01166" fill="#541F5C" fill-opacity="0.38"/>
</g>
<path d="M39.0104 25.6982L37.8476 30.1832C37.5185 31.7866 36.296 33.0676 34.6992 33.4551C30.9495 34.3656 27.4154 34.7389 23.8842 34.6569C20.3528 34.7389 16.8187 34.3656 13.0691 33.4551C11.4722 33.0676 10.2497 31.7866 9.92068 30.1832L8.75781 25.6982H39.0104Z" fill="#672C70"/>
<path d="M37.3814 31.4189C36.817 32.4228 35.8555 33.175 34.6982 33.4549C30.9485 34.3655 27.4144 34.7388 23.8832 34.6568C20.3519 34.7388 16.8178 34.3655 13.0681 33.4549C11.4712 33.0675 10.2488 31.7865 9.9197 30.1831L8.75684 25.6981H9.51128L10.4757 29.4139C10.8047 31.0173 12.0272 32.2983 13.624 32.6858C17.3737 33.5963 20.9078 33.9696 24.4391 33.8876C27.9704 33.9696 31.5045 33.5963 35.2541 32.6858C36.0937 32.4822 36.8283 32.0325 37.3814 31.4189Z" fill="#541F5C"/>
<path d="M23.8835 29.4147C22.3354 29.4147 8.75684 29.3104 8.75684 25.6971C8.75684 22.0782 22.3354 21.9736 23.8835 21.9736C25.4317 21.9736 39.0102 22.0782 39.0102 25.6971C39.0102 29.3104 25.4317 29.4147 23.8835 29.4147Z" fill="#541F5C"/>
<path d="M38.1013 25.6991C38.1013 27.2501 31.7334 28.5114 23.8827 28.5114C16.0258 28.5114 9.66406 27.2501 9.66406 25.6991C9.66406 24.1422 16.0258 22.8809 23.8827 22.8809C31.7334 22.8809 38.1013 24.1422 38.1013 25.6991Z" fill="#AF8DB4"/>
<path d="M38.1014 25.6983C38.1014 25.8001 38.0759 25.8991 38.022 25.9952C37.276 24.5785 31.2289 23.4756 23.8828 23.4756C16.5309 23.4756 10.4894 24.5785 9.74349 25.9952C9.68961 25.8991 9.66406 25.8001 9.66406 25.6983C9.66406 24.1401 16.026 22.8789 23.8828 22.8789C31.7338 22.8789 38.1014 24.1401 38.1014 25.6983Z" fill="#9D7CA2"/>
<path d="M24.1182 23.6416L25.2778 17.0998L25.7835 17.1889L24.6239 23.7307L24.1182 23.6416Z" fill="#24272B"/>
<path d="M27.0152 14.6947L26.1192 19.7409C26.0204 20.2973 25.4874 20.6689 24.9293 20.5704C24.6503 20.5212 24.4166 20.3623 24.2661 20.1476C24.1132 19.9325 24.0457 19.6619 24.0951 19.3837L24.9911 14.3374C25.0899 13.781 25.6233 13.4072 26.1837 13.5061C26.4627 13.5554 26.6941 13.7138 26.8446 13.9285C26.9952 14.1432 27.0646 14.4165 27.0152 14.6947Z" fill="#FFBC50"/>
<path d="M27.0155 14.6947L26.1194 19.7409C26.0206 20.2973 25.4876 20.6689 24.9296 20.5704C24.6505 20.5212 24.4169 20.3623 24.2663 20.1476C24.1643 20.0049 24.0999 19.836 24.0846 19.6569C24.0744 19.5681 24.0787 19.4772 24.0953 19.3837L24.9914 14.3374C25.0902 13.781 25.6236 13.4072 26.1839 13.5061C26.463 13.5554 26.6943 13.7138 26.8449 13.9285C26.9447 14.0707 27.0109 14.2424 27.0263 14.4215C27.0364 14.5103 27.0317 14.6035 27.0155 14.6947Z" fill="#541F5C"/>
<path d="M24.7329 20.23C24.8402 20.3829 24.9901 20.5082 25.1677 20.5842C25.089 20.5891 25.0096 20.5845 24.9296 20.5704C24.6505 20.5212 24.4169 20.3623 24.2663 20.1476C24.1643 20.0049 24.0999 19.836 24.0846 19.6569C24.0744 19.5681 24.0787 19.4772 24.0953 19.3836L24.9914 14.3374C25.0902 13.781 25.6236 13.4072 26.1839 13.5061C26.264 13.5202 26.3401 13.5431 26.4124 13.5746C25.9455 13.6004 25.5426 13.9432 25.4579 14.4198L24.5619 19.466C24.5453 19.5595 24.541 19.6505 24.5511 19.7393C24.5665 19.9184 24.6309 20.0873 24.7329 20.23Z" fill="#672C70"/>
<path d="M27.015 14.6951L26.9356 15.1421L24.79 15.4689L24.9192 14.7415L27.0258 14.4219C27.0359 14.5107 27.0312 14.6039 27.015 14.6951Z" fill="white"/>
<path d="M26.8167 15.8115L26.6876 16.5389L24.542 16.8657L24.6712 16.1383L26.8167 15.8115Z" fill="white"/>
<path d="M26.5687 17.2109L26.4395 17.9383L24.2939 18.2651L24.4231 17.5377L26.5687 17.2109Z" fill="white"/>
<path d="M26.3207 18.6074L26.1915 19.3348L24.0846 19.6567C24.0744 19.5679 24.0787 19.477 24.0953 19.3834L24.1751 18.9342L26.3207 18.6074Z" fill="white"/>
<path d="M21.6729 16.9104L22.1785 16.8213L23.3376 23.3632L22.8319 23.4522L21.6729 16.9104Z" fill="#24272B"/>
<path d="M20.4435 14.3969L21.3395 19.4431C21.4383 19.9995 21.9714 20.3711 22.5294 20.2726C22.8084 20.2233 23.0421 20.0645 23.1927 19.8498C23.3455 19.6346 23.413 19.364 23.3636 19.0858L22.4676 14.0396C22.3688 13.4832 21.8354 13.1093 21.275 13.2083C20.996 13.2575 20.7647 13.4159 20.6141 13.6306C20.4635 13.8454 20.3941 14.1187 20.4435 14.3969Z" fill="#FFBC50"/>
<path d="M20.4439 14.3969L21.3399 19.4431C21.4387 19.9995 21.9717 20.3711 22.5298 20.2726C22.8088 20.2233 23.0425 20.0645 23.193 19.8498C23.2951 19.7071 23.3594 19.5382 23.3748 19.3591C23.385 19.2702 23.3806 19.1793 23.364 19.0858L22.468 14.0396C22.3692 13.4832 21.8358 13.1093 21.2754 13.2083C20.9964 13.2575 20.765 13.4159 20.6145 13.6306C20.5147 13.7729 20.4485 13.9445 20.4331 14.1236C20.4229 14.2124 20.4277 14.3056 20.4439 14.3969Z" fill="#541F5C"/>
<path d="M22.7254 19.9321C22.6181 20.0851 22.4681 20.2103 22.2906 20.2863C22.3693 20.2913 22.4487 20.2867 22.5287 20.2726C22.8077 20.2233 23.0414 20.0645 23.192 19.8498C23.294 19.7071 23.3584 19.5382 23.3737 19.3591C23.3839 19.2702 23.3796 19.1793 23.3629 19.0858L22.4669 14.0396C22.3681 13.4832 21.8347 13.1093 21.2743 13.2083C21.1943 13.2224 21.1181 13.2452 21.0459 13.2768C21.5128 13.3025 21.9157 13.6453 22.0003 14.1219L22.8964 19.1682C22.913 19.2617 22.9173 19.3526 22.9072 19.4414C22.8918 19.6205 22.8274 19.7894 22.7254 19.9321Z" fill="#672C70"/>
<path d="M20.4439 14.3944L20.5232 14.8413L22.6688 15.1681L22.5396 14.4407L20.4331 14.1211C20.4229 14.2099 20.4277 14.3031 20.4439 14.3944Z" fill="white"/>
<path d="M20.6426 15.5127L20.7717 16.2401L22.9173 16.5669L22.7882 15.8395L20.6426 15.5127Z" fill="white"/>
<path d="M20.8906 16.9102L21.0198 17.6375L23.1654 17.9644L23.0362 17.237L20.8906 16.9102Z" fill="white"/>
<path d="M21.1377 18.3076L21.2669 19.035L23.3738 19.3569C23.384 19.2681 23.3796 19.1772 23.363 19.0836L23.2833 18.6344L21.1377 18.3076Z" fill="white"/>
<path d="M26.2545 27.9653C26.7652 27.9653 27.229 27.6664 27.4415 27.2035C28.2553 25.4312 27.4687 23.9866 26.8887 23.2501C26.7289 23.0471 26.6464 22.8018 26.6464 22.5551C26.6464 22.3717 26.6923 22.1871 26.7852 22.0193H20.9737C21.1929 22.4122 21.1491 22.8964 20.8703 23.2507C20.2902 23.9873 19.5044 25.4314 20.3182 27.2036C20.5308 27.6665 20.9946 27.9653 21.5052 27.9653H26.2545Z" fill="#541F5C"/>
<path d="M26.6664 22.3626H22.9478C22.2748 22.3626 21.6734 22.7124 21.2614 23.243C21.2594 23.2455 21.2574 23.2481 21.2554 23.2507C20.6756 23.9882 19.8905 25.4333 20.7028 27.2035C20.9171 27.6671 21.3791 27.9651 21.8894 27.9651H21.5059C20.9957 27.9651 20.5306 27.6671 20.3193 27.2035C19.504 25.4333 20.2891 23.9882 20.8719 23.2507C21.0711 22.9948 21.1497 22.6726 21.0953 22.3626C21.0832 22.2903 21.0621 22.215 21.0319 22.1458C21.0168 22.1006 20.9957 22.0615 20.9745 22.0193H26.7842C26.7268 22.1277 26.6846 22.2451 26.6664 22.3626Z" fill="#672C70"/>
<path d="M27.3369 21.5978C27.3369 21.8307 27.1471 22.02 26.9135 22.02H20.8473C20.6137 22.02 20.4238 21.8307 20.4238 21.5978C20.4238 21.481 20.471 21.3759 20.5482 21.2996C20.6248 21.2226 20.7302 21.1756 20.8473 21.1756H26.9135C27.1471 21.1756 27.3369 21.3648 27.3369 21.5978Z" fill="#AF8DB4"/>
<path d="M22.0983 22.0201H20.8503C20.6149 22.0201 20.4248 21.8307 20.4248 21.5988C20.4248 21.48 20.4731 21.3754 20.5497 21.299C20.6262 21.2227 20.7312 21.1746 20.8503 21.1746H22.0983C21.9791 21.1746 21.8742 21.2227 21.7976 21.299C21.721 21.3754 21.6728 21.48 21.6728 21.5988C21.6728 21.8307 21.8629 22.0201 22.0983 22.0201Z" fill="#9D7CA1"/>
<g opacity="0.3">
<path d="M26.52 27.0505C26.3988 26.9952 26.3454 26.8522 26.4008 26.7314C26.6792 26.1243 26.7181 25.5114 26.5158 24.9099C26.4737 24.7838 26.5418 24.6474 26.6683 24.6051C26.7951 24.5636 26.9319 24.6309 26.9741 24.757C27.2162 25.4782 27.1713 26.2098 26.8402 26.9316C26.7855 27.0505 26.6438 27.1067 26.52 27.0505Z" fill="white"/>
<path d="M26.1724 24.2115C26.1134 24.1217 26.0515 24.0374 25.9898 23.9591C25.9076 23.8544 25.9261 23.703 26.0311 23.621C26.1364 23.5381 26.2877 23.5575 26.3702 23.6619C26.4401 23.7508 26.5097 23.8462 26.5764 23.9478C26.6495 24.0591 26.6182 24.2083 26.5068 24.2812C26.3927 24.3552 26.244 24.3209 26.1724 24.2115Z" fill="white"/>
</g>
<path d="M36.5878 22.9869C36.5878 22.9869 36.4965 26.753 32.1939 26.9387C27.8913 26.753 27.7951 22.9869 27.7951 22.9869C27.7951 22.9869 27.7302 22.3722 30.0414 21.9924C31.4668 21.7575 32.921 21.7575 34.3464 21.9924C36.6527 22.3722 36.5878 22.9869 36.5878 22.9869Z" fill="#FC545D"/>
<path d="M36.225 23.0225C33.9247 24.4604 32.1928 22.3935 32.1928 22.3935C32.1928 22.3935 30.4633 24.4604 28.1582 23.0225C28.2159 22.9446 28.5512 22.6019 30.1004 22.3479C30.7902 22.2341 31.4945 22.1766 32.194 22.1766C32.8935 22.1766 33.5978 22.2341 34.2876 22.3479C35.8344 22.6031 36.1685 22.9446 36.225 23.0225Z" fill="#F14448"/>
<path d="M36.2243 23.0222C36.1902 23.0441 36.1561 23.0644 36.122 23.0846C35.9375 22.9437 35.4622 22.7007 34.2874 22.5071C33.5976 22.3929 32.8932 22.3353 32.1937 22.3353C31.4942 22.3353 30.7898 22.3929 30.1 22.5071C28.9227 22.6998 28.4466 22.9437 28.2606 23.0846C28.2265 23.0644 28.1923 23.0433 28.1582 23.0222C28.2159 22.9445 28.5506 22.6018 30.1 22.3475C30.7898 22.2341 31.4942 22.1766 32.1937 22.1766C32.8932 22.1766 33.5976 22.2341 34.2874 22.3475C35.8344 22.6026 36.1683 22.9445 36.2243 23.0222Z" fill="#E82832"/>
<path d="M36.3057 24.2557C36.1892 24.5626 36.0247 24.8963 35.7917 25.2198H28.5911C28.3572 24.8963 28.1926 24.5626 28.0762 24.2557H36.3057Z" fill="#FFBC50"/>
<path d="M35.4642 25.618C35.3569 25.7314 35.2386 25.8429 35.1092 25.9479H29.2758C29.1464 25.8429 29.0281 25.7314 28.9199 25.618H35.4642Z" fill="#FFBC50"/>
<path d="M32.3275 20.9463V22.5353C32.2388 22.4486 32.1925 22.3933 32.1925 22.3933C32.1925 22.3933 32.1454 22.4496 32.0566 22.5371V20.9463H32.3275Z" fill="#24272B"/>
<path d="M32.2842 21.6878C31.2045 21.7596 31.4985 20.4656 31.4985 20.4656C31.4985 20.4656 31.7379 19.6573 32.1992 19.0444C32.2713 18.9504 32.422 18.9964 32.4248 19.1153C32.4322 19.5098 32.4858 20.1495 32.7335 20.4481C32.7335 20.4481 33.3631 21.6159 32.2842 21.6878Z" fill="#FC545D"/>
<path d="M32.2488 21.6904C31.5798 21.7349 31.7619 20.9332 31.7619 20.9332C31.7619 20.9332 31.9102 20.4324 32.1961 20.0526C32.2407 19.9944 32.3341 20.0229 32.3358 20.0966C32.3404 20.341 32.3736 20.7373 32.5271 20.9223C32.5271 20.9223 32.9172 21.6459 32.2488 21.6904Z" fill="#FFB32C"/>
<path d="M19.5074 23.9447C19.5074 25.605 18.1539 26.9101 16.533 26.9101C15.142 26.9101 13.9741 25.959 13.6494 24.6734C13.1686 22.7979 14.5986 20.9793 16.533 20.9793C18.1744 20.9793 19.5074 22.3066 19.5074 23.9447Z" fill="#FFBC50"/>
<path d="M19.5088 23.944C19.5088 25.5537 18.1988 26.9075 16.5335 26.9075C16.1336 26.9075 15.7506 26.8284 15.4018 26.6813C13.307 25.8294 12.8962 23.0185 14.7012 21.6081C15.2061 21.2151 15.8414 20.9775 16.5335 20.9775C18.1757 20.9775 19.5088 22.3066 19.5088 23.944Z" fill="#FFBC50"/>
<path d="M15.4018 26.6816C13.307 25.8297 12.8962 23.0187 14.7012 21.6084C16.6904 22.5781 17.0312 25.2353 15.4018 26.6816Z" fill="#FFB32C"/>
<path d="M18.9692 25.6408C18.4338 26.4079 17.5415 26.9081 16.5321 26.9081C15.142 26.9081 13.974 25.9571 13.6488 24.6721C13.3387 23.4647 13.8212 22.2179 14.8247 21.5147C14.4856 21.9951 14.2873 22.5823 14.2873 23.215C14.2873 24.8697 15.635 26.1806 17.2618 26.1806C17.8964 26.1806 18.4853 25.9809 18.9692 25.6408Z" fill="#FFB32C"/>
<path d="M17.6472 22.2388C17.6472 22.5655 17.3817 22.8302 17.0541 22.8302C16.7264 22.8302 16.4609 22.5655 16.4609 22.2388C16.4609 21.9121 16.7264 21.6475 17.0541 21.6475C17.3817 21.6475 17.6472 21.9121 17.6472 22.2388Z" fill="#4FE88D"/>
<path d="M17.5754 22.5228C17.475 22.7088 17.2789 22.8328 17.0541 22.8328C16.7264 22.8328 16.4609 22.5682 16.4609 22.2415C16.4609 22.0173 16.5853 21.8218 16.7719 21.7217C16.7288 21.8051 16.7025 21.9005 16.7025 22.0007C16.7025 22.3273 16.968 22.592 17.2956 22.592C17.396 22.592 17.4917 22.5658 17.5754 22.5228Z" fill="#35D175"/>
<g opacity="0.3">
<path d="M18.5501 23.2225C18.5121 23.1178 18.4657 23.0152 18.4122 22.9179C18.37 22.8413 18.3981 22.7451 18.475 22.7031C18.552 22.661 18.6483 22.6894 18.6903 22.7658C18.7517 22.8775 18.8049 22.995 18.8483 23.115C18.8781 23.1972 18.8355 23.2879 18.753 23.3175C18.6694 23.3474 18.5794 23.3036 18.5501 23.2225Z" fill="white"/>
<path d="M18.1829 25.549C18.1161 25.4924 18.108 25.3926 18.1647 25.326C18.5146 24.9152 18.7054 24.3791 18.6732 23.8217C18.6682 23.7345 18.735 23.6598 18.8225 23.6546C18.9109 23.6489 18.985 23.7162 18.9901 23.8034C19.0256 24.4115 18.8297 25.0341 18.4064 25.5308C18.3496 25.5974 18.2497 25.6054 18.1829 25.549Z" fill="white"/>
</g>
<path d="M15.909 24.3796C15.909 25.7757 14.7741 26.9408 13.34 26.9408C11.9059 26.9408 10.7695 25.7771 10.7695 24.3796C10.7695 22.9647 11.9209 21.8184 13.34 21.8184C14.7577 21.8184 15.909 22.9647 15.909 24.3796Z" fill="#FFBC50"/>
<path d="M15.4443 25.8458C14.9819 26.5083 14.2112 26.9403 13.3394 26.9403C11.905 26.9403 10.7686 25.7738 10.7686 24.3806C10.7686 23.5132 11.2019 22.7465 11.8647 22.282C11.5718 22.6969 11.4005 23.2041 11.4005 23.7505C11.4005 25.1584 12.5445 26.3119 13.9697 26.3119C14.5177 26.3119 15.0264 26.1395 15.4443 25.8458Z" fill="#FFB32C"/>
<path d="M14.3029 22.9092C14.3029 23.1913 14.0736 23.4199 13.7906 23.4199C13.5076 23.4199 13.2783 23.1913 13.2783 22.9092C13.2783 22.627 13.5076 22.3984 13.7906 22.3984C14.0736 22.3984 14.3029 22.627 14.3029 22.9092Z" fill="#4FE88D"/>
<path d="M14.2409 23.1517C14.1542 23.3124 13.9848 23.4195 13.7906 23.4195C13.5076 23.4195 13.2783 23.1909 13.2783 22.9087C13.2783 22.7151 13.3857 22.5462 13.5469 22.4597C13.5097 22.5318 13.487 22.6142 13.487 22.7007C13.487 22.9828 13.7163 23.2114 13.9992 23.2114C14.086 23.2114 14.1686 23.1888 14.2409 23.1517Z" fill="#35D175"/>
<g opacity="0.3">
<path d="M15.0833 23.7575C15.0505 23.667 15.0104 23.5785 14.9642 23.4944C14.9278 23.4282 14.952 23.3452 15.0184 23.3089C15.085 23.2725 15.1681 23.2971 15.2044 23.363C15.2574 23.4595 15.3034 23.561 15.3409 23.6646C15.3667 23.7357 15.3299 23.8139 15.2586 23.8395C15.1864 23.8654 15.1086 23.8275 15.0833 23.7575Z" fill="white"/>
<path d="M14.7661 25.7664C14.7084 25.7175 14.7014 25.6313 14.7504 25.5738C15.0526 25.219 15.2174 24.756 15.1896 24.2746C15.1853 24.1992 15.243 24.1346 15.3186 24.1302C15.3948 24.1252 15.4589 24.1834 15.4632 24.2587C15.4939 24.7839 15.3248 25.3217 14.9591 25.7507C14.9101 25.8082 14.8238 25.8151 14.7661 25.7664Z" fill="white"/>
</g>
<path d="M38.2233 28.7305L37.8461 30.184C37.8063 30.3763 37.7553 30.5601 37.6901 30.7411C34.241 32.6753 25.1335 32.7432 23.8827 32.7432C22.6318 32.7432 13.5243 32.6753 10.0752 30.7411C10.01 30.5601 9.95893 30.3763 9.91918 30.184L9.54199 28.7305C12.4577 31.0069 22.5609 31.0804 23.8827 31.0804C25.2044 31.0804 35.3075 31.0069 38.2233 28.7305Z" fill="#AF8DB4"/>
<g opacity="0.3">
<path d="M31.9936 24.603C31.9936 24.6878 31.9256 24.7529 31.8405 24.7529H28.8935C28.8112 24.7529 28.7432 24.6878 28.7432 24.603C28.7432 24.521 28.8112 24.4531 28.8935 24.4531H31.8405C31.9256 24.4531 31.9936 24.521 31.9936 24.603Z" fill="white"/>
<path d="M32.9546 24.603C32.9546 24.6878 32.8865 24.7529 32.8014 24.7529H32.4072C32.3249 24.7529 32.2568 24.6878 32.2568 24.603C32.2568 24.521 32.3249 24.4531 32.4072 24.4531H32.8014C32.8865 24.4531 32.9546 24.521 32.9546 24.603Z" fill="white"/>
</g>
</g>
<defs>
<filter id="filter0_f_722_16468" x="7.43359" y="29.4756" width="32.4927" height="9.02331" filterUnits="userSpaceOnUse" color-interpolation-filters="sRGB">
<feFlood flood-opacity="0" result="BackgroundImageFix"/>
<feBlend mode="normal" in="SourceGraphic" in2="BackgroundImageFix" result="shape"/>
<feGaussianBlur stdDeviation="1.25" result="effect1_foregroundBlur_722_16468"/>
</filter>
<clipPath id="clip0_722_16468">
<rect width="30" height="30" fill="white" transform="translate(9 9)"/>
</clipPath>
</defs>
</svg>
