<svg width="24" height="24" viewBox="0 0 24 24" fill="none" xmlns="http://www.w3.org/2000/svg">
<path d="M15.7997 2.21048C15.3897 1.80048 14.6797 2.08048 14.6797 2.65048V6.14048C14.6797 7.60048 15.9197 8.81048 17.4297 8.81048C18.3797 8.82048 19.6997 8.82048 20.8297 8.82048C21.3997 8.82048 21.6997 8.15048 21.2997 7.75048C19.8597 6.30048 17.2797 3.69048 15.7997 2.21048Z" fill="#541F5C"/>
<path d="M20.5 10.1904H17.61C15.24 10.1904 13.31 8.26037 13.31 5.89037V3.00037C13.31 2.45037 12.86 2.00037 12.31 2.00037H8.07C4.99 2.00037 2.5 4.00037 2.5 7.57037V16.4304C2.5 20.0004 4.99 22.0004 8.07 22.0004H15.93C19.01 22.0004 21.5 20.0004 21.5 16.4304V11.1904C21.5 10.6404 21.05 10.1904 20.5 10.1904ZM11.5 17.7504H7.5C7.09 17.7504 6.75 17.4104 6.75 17.0004C6.75 16.5904 7.09 16.2504 7.5 16.2504H11.5C11.91 16.2504 12.25 16.5904 12.25 17.0004C12.25 17.4104 11.91 17.7504 11.5 17.7504ZM13.5 13.7504H7.5C7.09 13.7504 6.75 13.4104 6.75 13.0004C6.75 12.5904 7.09 12.2504 7.5 12.2504H13.5C13.91 12.2504 14.25 12.5904 14.25 13.0004C14.25 13.4104 13.91 13.7504 13.5 13.7504Z" fill="#541F5C"/>
</svg>
