<svg width="19" height="19" viewBox="0 0 19 19" fill="none" xmlns="http://www.w3.org/2000/svg">
<g clip-path="url(#clip0_4_419)">
<path d="M8.56862 9.40251C9.06474 9.73327 9.93526 9.73331 10.4315 9.40247C10.4316 9.40244 10.4317 9.40236 10.4317 9.40233L18.8877 3.76496C18.6104 2.9628 17.848 2.38493 16.9528 2.38493H2.04719C1.15192 2.38493 0.389577 2.9628 0.112183 3.76496L8.56836 9.40236C8.56847 9.40244 8.56855 9.40244 8.56862 9.40251Z" fill="white"/>
<path d="M11.0493 10.3287C11.0491 10.3287 11.0491 10.3288 11.049 10.3288C10.6147 10.6183 10.0573 10.7631 9.5 10.7631C8.94261 10.7631 8.38537 10.6184 7.95108 10.3288C7.95101 10.3288 7.95097 10.3287 7.95089 10.3287L0 5.02814V14.568C0 15.6968 0.918353 16.6151 2.04719 16.6151H16.9529C18.0817 16.6151 19 15.6968 19 14.568V5.02814L11.0493 10.3287Z" fill="white"/>
</g>
<defs>
<clipPath id="clip0_4_419">
<rect width="19" height="19" fill="white"/>
</clipPath>
</defs>
</svg>
