<svg width="24" height="24" viewBox="0 0 24 24" fill="none" xmlns="http://www.w3.org/2000/svg">
<path d="M12.0019 16.3299C9.61187 16.3299 7.67188 14.3899 7.67188 11.9999C7.67188 9.60992 9.61187 7.66992 12.0019 7.66992C14.3919 7.66992 16.3319 9.60992 16.3319 11.9999C16.3319 14.3899 14.3919 16.3299 12.0019 16.3299ZM12.0019 9.16992C10.4419 9.16992 9.17188 10.4399 9.17188 11.9999C9.17188 13.5599 10.4419 14.8299 12.0019 14.8299C13.5619 14.8299 14.8319 13.5599 14.8319 11.9999C14.8319 10.4399 13.5619 9.16992 12.0019 9.16992Z" fill="#292D32"/>
<path d="M11.9981 21.0205C8.23813 21.0205 4.68813 18.8205 2.24812 15.0005C1.18813 13.3505 1.18813 10.6605 2.24812 9.00047C4.69813 5.18047 8.24813 2.98047 11.9981 2.98047C15.7481 2.98047 19.2981 5.18047 21.7381 9.00047C22.7981 10.6505 22.7981 13.3405 21.7381 15.0005C19.2981 18.8205 15.7481 21.0205 11.9981 21.0205ZM11.9981 4.48047C8.76813 4.48047 5.67813 6.42047 3.51813 9.81047C2.76813 10.9805 2.76813 13.0205 3.51813 14.1905C5.67813 17.5805 8.76813 19.5205 11.9981 19.5205C15.2281 19.5205 18.3181 17.5805 20.4781 14.1905C21.2281 13.0205 21.2281 10.9805 20.4781 9.81047C18.3181 6.42047 15.2281 4.48047 11.9981 4.48047Z" fill="#292D32"/>
</svg>
