<svg width="20" height="20" viewBox="0 0 20 20" fill="none" xmlns="http://www.w3.org/2000/svg">
<g clip-path="url(#clip0_208_2)">
<path d="M18.896 3.53445e-08H1.10306C0.493774 0.000305211 -0.000152553 0.494537 3.53445e-08 1.10397V18.8969C0.000305211 19.5062 0.494537 20.0002 1.10397 20H18.896C19.5056 20.0002 19.9998 19.5061 20 18.8965C20 18.8963 20 18.8962 20 18.896V1.10306C19.9997 0.493774 19.5055 -0.000152553 18.896 3.53445e-08Z" fill="white"/>
<path d="M13.8086 20V12.2656H16.416L16.8066 9.23828H13.8086V7.31018C13.8086 6.4357 14.0514 5.83984 15.3053 5.83984H16.8945V3.1395C16.618 3.10272 15.6694 3.02048 14.5656 3.02048C12.2609 3.02048 10.6836 4.42673 10.6836 7.01035V9.23828H8.08594V12.2656H10.6836V20H13.8086Z" fill="#0084FF"/>
</g>
<defs>
<clipPath id="clip0_208_2">
<rect width="20" height="20" fill="white"/>
</clipPath>
</defs>
</svg>
