<svg width="24" height="24" viewBox="0 0 24 24" fill="none" xmlns="http://www.w3.org/2000/svg">
<path d="M13.9166 15.7667C17.0554 15.7667 19.5999 13.2222 19.5999 10.0834C19.5999 6.94454 17.0554 4.40002 13.9166 4.40002C10.7778 4.40002 8.23328 6.94454 8.23328 10.0834C8.23328 13.2222 10.7778 15.7667 13.9166 15.7667Z" stroke="#541F5C" stroke-width="1.5" stroke-linecap="round" stroke-linejoin="round"/>
<path d="M22.1665 1.83331L18.1332 5.86665" stroke="#541F5C" stroke-width="1.5" stroke-linecap="round" stroke-linejoin="round"/>
<path d="M17.3999 1.83331H22.1666V6.59998" stroke="#541F5C" stroke-width="1.5" stroke-linecap="round" stroke-linejoin="round"/>
<path d="M9.6 17.6C12.6928 17.6 15.2 15.0928 15.2 12C15.2 8.90717 12.6928 6.39996 9.6 6.39996C6.50721 6.39996 4 8.90717 4 12C4 15.0928 6.50721 17.6 9.6 17.6Z" stroke="#541F5C" stroke-width="1.5" stroke-linecap="round" stroke-linejoin="round"/>
<path d="M9.59998 17.6V22.4" stroke="#541F5C" stroke-width="1.5" stroke-linecap="round" stroke-linejoin="round"/>
<path d="M12 20H7.19995" stroke="#541F5C" stroke-width="1.5" stroke-linecap="round" stroke-linejoin="round"/>
</svg>
