<svg width="22" height="22" viewBox="0 0 22 22" fill="none" xmlns="http://www.w3.org/2000/svg">
<path d="M20.2986 9.19092H12.1131C11.7521 9.19092 11.46 9.48311 11.46 9.84404V12.4608C11.46 12.8218 11.7521 13.114 12.1131 13.114H16.7236C16.2209 14.4245 15.2756 15.5202 14.0768 16.2163L16.0404 19.6194C19.19 17.7976 21.0549 14.5964 21.0549 11.0171C21.0549 10.5058 21.0162 10.1405 20.9432 9.73232C20.883 9.41865 20.6123 9.19092 20.2986 9.19092V9.19092Z" fill="#167EE6"/>
<path d="M11.0219 17.0414C8.76602 17.0414 6.79805 15.8082 5.74102 13.9863L2.33789 15.9457C4.06953 18.9492 7.31367 20.9688 11.0219 20.9688C12.8438 20.9688 14.5582 20.4789 16.0406 19.6238V19.6195L14.077 16.2164C13.1746 16.7406 12.1348 17.0414 11.0219 17.0414V17.0414Z" fill="#12B347"/>
<path d="M16.0359 19.6237V19.6194L14.0723 16.2163C13.1742 16.7362 12.1344 17.0413 11.0215 17.0413V20.9687C12.8434 20.9687 14.5578 20.4788 16.0359 19.6237Z" fill="#0F993E"/>
<path d="M4.91562 10.9354C4.91562 9.82256 5.2207 8.78271 5.74062 7.88467L2.3375 5.92529C1.47813 7.39912 0.988281 9.10928 0.988281 10.9354C0.988281 12.7616 1.47813 14.4718 2.3375 15.9456L5.74062 13.9862C5.21641 13.0882 4.91562 12.0483 4.91562 10.9354V10.9354Z" fill="#FFD500"/>
<path d="M11.0219 4.82969C12.4914 4.82969 13.8449 5.35391 14.8977 6.22188C15.1598 6.43672 15.5379 6.41953 15.7742 6.1832L17.6262 4.33125C17.8969 4.06055 17.8754 3.61797 17.5875 3.36875C15.8215 1.83047 13.5227 0.902344 11.0219 0.902344C7.31367 0.902344 4.06953 2.92187 2.33789 5.92539L5.74102 7.88477C6.79805 6.06289 8.76602 4.82969 11.0219 4.82969Z" fill="#FF4B26"/>
<path d="M14.8973 6.22188C15.1594 6.43672 15.5375 6.41953 15.7738 6.1832L17.6258 4.33125C17.8965 4.06055 17.875 3.61797 17.5871 3.36875C15.8211 1.83047 13.5223 0.902344 11.0215 0.902344V4.82969C12.491 4.82969 13.8445 5.34961 14.8973 6.22188Z" fill="#D93F21"/>
</svg>
