<svg width="48" height="48" viewBox="0 0 48 48" fill="none" xmlns="http://www.w3.org/2000/svg">
<rect width="48" height="48" rx="4" fill="#C9B7CB"/>
<g clip-path="url(#clip0_959_10167)">
<path d="M23.9999 9C16.1531 9 9.76917 15.3839 9.76917 23.2308C9.76917 26.6173 10.9856 31.6685 12.868 36.0991C13.1016 36.6488 13.7366 36.9049 14.286 36.6715C14.8357 36.438 15.0919 35.8031 14.8584 35.2535C13.0805 31.069 11.9318 26.3498 11.9318 23.2308C11.9318 22.1441 12.0771 21.0909 12.3476 20.0885C13.7983 15.5984 18.4658 12.3119 23.9999 12.3119C29.5341 12.3119 34.2016 15.5984 35.6523 20.0885C35.9229 21.0908 36.0681 22.1441 36.0681 23.2308C36.0681 26.3498 34.9194 31.069 33.1415 35.2535C32.908 35.8031 33.1642 36.438 33.7139 36.6715C33.8518 36.7302 33.9952 36.7579 34.1362 36.7579C34.557 36.7579 34.957 36.5108 35.1319 36.0991C37.0143 31.6685 38.2307 26.6173 38.2307 23.2308C38.2307 15.3839 31.8468 9 23.9999 9Z" fill="#541F5C"/>
<path d="M30.7086 10.6836C32.6506 12.6118 34.041 15.0946 34.6194 17.8719C35.0522 18.5674 35.4007 19.3098 35.6523 20.0885C35.9229 21.0909 36.0681 22.1441 36.0681 23.2308C36.0681 26.3498 34.9194 31.069 33.1415 35.2535C32.908 35.8031 33.1642 36.438 33.7139 36.6715C33.8519 36.7302 33.9952 36.7579 34.1362 36.7579C34.557 36.7579 34.957 36.5108 35.1319 36.0991C37.0144 31.6684 38.2308 26.6173 38.2308 23.2308C38.2308 17.8082 35.1818 13.085 30.7086 10.6836Z" fill="#672C70"/>
<path d="M27.2312 38.3154C26.1068 37.9253 25.5115 36.6976 25.9016 35.5731L28.7711 27.3023C29.1612 26.1779 30.3889 25.5827 31.5133 25.9728L33.225 26.5666C33.5498 26.6793 33.8311 26.8911 34.0292 27.172L35.2564 28.912C35.5148 29.2784 35.5808 29.7469 35.4339 30.1705L32.9091 37.4478C32.7621 37.8714 32.4201 38.1983 31.9903 38.3259L29.9492 38.932C29.6196 39.0298 29.2677 39.0219 28.9428 38.9092L27.2312 38.3154Z" fill="#672C70"/>
<path d="M35.2563 28.912L34.2993 27.555C34.3923 27.8403 34.3918 28.1519 34.2909 28.4425L32.0517 34.8966C31.7255 35.837 30.9662 36.5626 30.0121 36.8459L28.8062 37.204C28.4766 37.3018 28.1246 37.2939 27.7998 37.1812L26.0882 36.5873C25.9841 36.5512 25.8845 36.5078 25.7899 36.4581C25.8589 37.2814 26.4003 38.027 27.2311 38.3153L28.9427 38.9092C29.2676 39.0218 29.6195 39.0298 29.9491 38.932L31.9902 38.3259C32.42 38.1983 32.762 37.8714 32.909 37.4478L35.4338 30.1705C35.5808 29.7469 35.5147 29.2784 35.2563 28.912Z" fill="#541F5C"/>
<path d="M20.7687 38.3154C21.8932 37.9253 22.4884 36.6976 22.0983 35.5731L19.2288 27.3023C18.8387 26.1779 17.611 25.5827 16.4866 25.9728L14.775 26.5666C14.4501 26.6793 14.1689 26.8911 13.9707 27.172L12.7436 28.912C12.4852 29.2784 12.4191 29.7469 12.566 30.1705L15.0908 37.4478C15.2378 37.8714 15.5798 38.1983 16.0096 38.3259L18.0507 38.932C18.3803 39.0298 18.7323 39.0219 19.0571 38.9092L20.7687 38.3154Z" fill="#541F5C"/>
<path d="M22.0983 35.5731L19.2288 27.3023C18.895 26.3401 17.9476 25.766 16.9766 25.8647L19.8433 34.1275C20.2334 35.2519 19.6382 36.4796 18.5137 36.8697L16.8021 37.4636C16.4773 37.5762 16.1253 37.5842 15.7957 37.4863L15.0248 37.2574L15.0908 37.4477C15.2378 37.8713 15.5798 38.1982 16.0096 38.3258L18.0507 38.9319C18.3803 39.0298 18.7322 39.0218 19.0571 38.9091L20.7687 38.3153C21.8931 37.9253 22.4884 36.6975 22.0983 35.5731Z" fill="#672C70"/>
<path d="M20.7687 38.3154C21.8931 37.9253 22.4884 36.6976 22.0982 35.5731L19.2288 27.3023C18.8387 26.1779 17.611 25.5827 16.4865 25.9728L14.7749 26.5666L19.0571 38.9092L20.7687 38.3154Z" fill="#554E57"/>
<path d="M27.2312 38.3154C26.1068 37.9253 25.5115 36.6976 25.9016 35.5731L28.7711 27.3023C29.1612 26.1779 30.3889 25.5827 31.5133 25.9728L33.225 26.5666L28.9428 38.9092L27.2312 38.3154Z" fill="#554E57"/>
<path d="M28.8062 37.204C28.4766 37.3019 28.1246 37.2939 27.7998 37.1812L26.0882 36.5874C25.9841 36.5513 25.8845 36.5079 25.7899 36.4582C25.8589 37.2815 26.4003 38.0271 27.2311 38.3154L28.9427 38.9092L29.618 36.963L28.8062 37.204Z" fill="#453E43"/>
<path d="M22.0983 35.5731L19.2288 27.3023C18.8949 26.3401 17.9476 25.766 16.9766 25.8647L19.8433 34.1275C20.2334 35.2519 19.6381 36.4796 18.5137 36.8697L18.3672 36.9206L19.0571 38.9092L20.7687 38.3153C21.8931 37.9253 22.4884 36.6975 22.0983 35.5731Z" fill="#453E43"/>
</g>
<defs>
<clipPath id="clip0_959_10167">
<rect width="30" height="30" fill="white" transform="translate(9 9)"/>
</clipPath>
</defs>
</svg>
