<svg width="24" height="24" viewBox="0 0 24 24" fill="none" xmlns="http://www.w3.org/2000/svg">
<path d="M22.4386 12.2893C22.3824 12.4263 22.2868 12.5436 22.164 12.6263C22.0412 12.7091 21.8967 12.7536 21.7486 12.7543H19.4986V20.2543C19.4986 20.8511 19.2616 21.4234 18.8396 21.8453C18.4177 22.2673 17.8454 22.5043 17.2486 22.5043H14.2486C14.0497 22.5043 13.859 22.4253 13.7183 22.2847C13.5777 22.144 13.4986 21.9533 13.4986 21.7543V17.2543C13.4986 17.0554 13.4196 16.8647 13.279 16.724C13.1383 16.5834 12.9476 16.5043 12.7486 16.5043H11.2486C11.0497 16.5043 10.859 16.5834 10.7183 16.724C10.5777 16.8647 10.4986 17.0554 10.4986 17.2543V21.7543C10.4986 21.9533 10.4196 22.144 10.279 22.2847C10.1383 22.4253 9.94755 22.5043 9.74864 22.5043H6.74864C6.1519 22.5043 5.57961 22.2673 5.15765 21.8453C4.73569 21.4234 4.49864 20.8511 4.49864 20.2543V12.7543H2.24864C2.10057 12.7536 1.95603 12.7091 1.83324 12.6263C1.71045 12.5436 1.6149 12.4263 1.55864 12.2893C1.50121 12.1528 1.48551 12.0022 1.51354 11.8567C1.54157 11.7112 1.61207 11.5773 1.71614 11.4718L11.4661 1.72185C11.5359 1.65155 11.6188 1.59576 11.7102 1.55768C11.8016 1.5196 11.8996 1.5 11.9986 1.5C12.0976 1.5 12.1957 1.5196 12.2871 1.55768C12.3785 1.59576 12.4614 1.65155 12.5311 1.72185L22.2811 11.4718C22.3852 11.5773 22.4557 11.7112 22.4837 11.8567C22.5118 12.0022 22.4961 12.1528 22.4386 12.2893Z" fill="white"/>
</svg>
