<svg width="26" height="27" viewBox="0 0 26 27" fill="none" xmlns="http://www.w3.org/2000/svg">
<rect width="26" height="27" rx="8" fill="#541F5C"/>
<rect x="0.5" y="0.5" width="25" height="26" rx="7.5" stroke="#541F5C" stroke-opacity="0.2"/>
<path d="M14.5422 7.75527C14.5422 8.00037 14.4947 8.22966 14.4038 8.43919C14.3089 8.65267 14.1824 8.83452 14.0243 8.99265C13.8622 9.15078 13.6764 9.27729 13.459 9.36821C13.2415 9.46309 13.0122 9.50658 12.7671 9.50658C12.522 9.50658 12.2927 9.45914 12.0753 9.36821C11.8579 9.27333 11.6721 9.15078 11.5139 8.99265C11.3558 8.83452 11.2293 8.64871 11.1384 8.43919C11.0435 8.22571 11 7.99642 11 7.75527C11 7.51411 11.0474 7.28878 11.1384 7.0753C11.2293 6.86182 11.3558 6.67206 11.5139 6.51393C11.6721 6.3558 11.8579 6.22929 12.0753 6.13837C12.2927 6.04744 12.522 6 12.7671 6C13.0122 6 13.2415 6.04744 13.459 6.13837C13.6764 6.23324 13.8622 6.3558 14.0243 6.51393C14.1864 6.67206 14.3129 6.85787 14.4038 7.0753C14.4947 7.28878 14.5422 7.51411 14.5422 7.75527ZM14.0875 19.5737C14.0875 20.3062 13.4937 20.9 12.7612 20.9V20.9C12.0287 20.9 11.4349 20.3062 11.4349 19.5737V11.8884C11.4349 11.1559 12.0287 10.5621 12.7612 10.5621V10.5621C13.4937 10.5621 14.0875 11.1559 14.0875 11.8884V19.5737Z" fill="white"/>
</svg>
