<svg width="37" height="37" viewBox="0 0 37 37" fill="none" xmlns="http://www.w3.org/2000/svg">
<path d="M31.6042 15.7096H27.1488C23.4951 15.7096 20.5197 12.7341 20.5197 9.0804V4.62498C20.5197 3.77706 19.8259 3.08331 18.978 3.08331H12.4413C7.693 3.08331 3.85425 6.16665 3.85425 11.6704V25.3296C3.85425 30.8333 7.693 33.9166 12.4413 33.9166H24.5588C29.3072 33.9166 33.1459 30.8333 33.1459 25.3296V17.2512C33.1459 16.4033 32.4522 15.7096 31.6042 15.7096Z" fill="#541F5C"/>
<path d="M24.3583 3.40709C23.7262 2.77501 22.6316 3.20668 22.6316 4.08543V9.46584C22.6316 11.7167 24.5433 13.5821 26.8712 13.5821C28.3358 13.5975 30.3708 13.5975 32.1128 13.5975C32.9916 13.5975 33.4541 12.5646 32.8374 11.9479C30.6174 9.71251 26.6399 5.68876 24.3583 3.40709Z" fill="#541F5C"/>
<path d="M10.16 28.108C9.572 28.108 9.104 27.943 8.756 27.613C8.414 27.283 8.243 26.818 8.243 26.218H9.197C9.197 26.518 9.269 26.767 9.413 26.965C9.563 27.163 9.806 27.262 10.142 27.262C10.472 27.262 10.706 27.169 10.844 26.983C10.982 26.791 11.051 26.548 11.051 26.254V21.7H12.005V26.254C12.005 26.848 11.84 27.307 11.51 27.631C11.18 27.949 10.73 28.108 10.16 28.108ZM13.2796 28V21.7H15.4846C15.9766 21.7 16.3846 21.784 16.7086 21.952C17.0326 22.114 17.2726 22.339 17.4286 22.627C17.5906 22.909 17.6716 23.23 17.6716 23.59C17.6716 23.932 17.5936 24.247 17.4376 24.535C17.2876 24.817 17.0506 25.042 16.7266 25.21C16.4026 25.378 15.9886 25.462 15.4846 25.462H14.2336V28H13.2796ZM14.2336 24.679H15.4396C15.8896 24.679 16.2106 24.583 16.4026 24.391C16.6006 24.193 16.6996 23.926 16.6996 23.59C16.6996 23.242 16.6006 22.972 16.4026 22.78C16.2106 22.582 15.8896 22.483 15.4396 22.483H14.2336V24.679ZM18.6146 28V21.7H22.6196V22.474H19.5686V24.436H22.3496V25.192H19.5686V27.226H22.6196V28H18.6146ZM26.4922 28.108C25.8982 28.108 25.3792 27.973 24.9352 27.703C24.4912 27.433 24.1462 27.055 23.9002 26.569C23.6542 26.083 23.5312 25.516 23.5312 24.868C23.5312 24.226 23.6572 23.659 23.9092 23.167C24.1612 22.675 24.5182 22.291 24.9802 22.015C25.4482 21.733 26.0002 21.592 26.6362 21.592C27.3562 21.592 27.9562 21.766 28.4362 22.114C28.9162 22.462 29.2282 22.942 29.3722 23.554H28.2922C28.1962 23.218 28.0072 22.954 27.7252 22.762C27.4432 22.57 27.0802 22.474 26.6362 22.474C25.9762 22.474 25.4572 22.687 25.0792 23.113C24.7012 23.539 24.5122 24.127 24.5122 24.877C24.5122 25.627 24.6982 26.212 25.0702 26.632C25.4422 27.052 25.9372 27.262 26.5552 27.262C27.1792 27.262 27.6472 27.085 27.9592 26.731C28.2772 26.377 28.4632 25.906 28.5172 25.318H26.8072V24.58H29.4802V28H28.6072L28.5262 27.073C28.3162 27.403 28.0522 27.658 27.7342 27.838C27.4162 28.018 27.0022 28.108 26.4922 28.108Z" fill="white"/>
</svg>
