<svg width="24" height="24" viewBox="0 0 24 24" fill="none" xmlns="http://www.w3.org/2000/svg">
<path d="M22 11.89V12.78C22 16.34 21.11 17.22 17.56 17.22H6.44C2.89 17.22 2 16.33 2 12.78V6.44C2 2.89 2.89 2 6.44 2H8" stroke="#A48AA9" stroke-width="1.5" stroke-linecap="round" stroke-linejoin="round"/>
<path d="M12 17.22V22" stroke="#A48AA9" stroke-width="1.5" stroke-linecap="round" stroke-linejoin="round"/>
<path d="M2 13H22" stroke="#A48AA9" stroke-width="1.5" stroke-linecap="round" stroke-linejoin="round"/>
<path d="M7.5 22H16.5" stroke="#A48AA9" stroke-width="1.5" stroke-linecap="round" stroke-linejoin="round"/>
<path d="M17.8598 9.37001H13.0998C11.7198 9.37001 11.2598 8.45001 11.2598 7.53001V4.01001C11.2598 2.91001 12.1598 2.01001 13.2598 2.01001H17.8598C18.8798 2.01001 19.6998 2.83001 19.6998 3.85001V7.53001C19.6998 8.55001 18.8798 9.37001 17.8598 9.37001Z" stroke="#A48AA9" stroke-width="1.5" stroke-linecap="round" stroke-linejoin="round"/>
<path d="M20.9102 7.91998L19.7002 7.06998V4.30998L20.9102 3.45998C21.5102 3.04998 22.0002 3.29998 22.0002 4.02998V7.35998C22.0002 8.08998 21.5102 8.33998 20.9102 7.91998Z" stroke="#A48AA9" stroke-width="1.5" stroke-linecap="round" stroke-linejoin="round"/>
</svg>
