<svg width="24" height="24" viewBox="0 0 24 24" fill="none" xmlns="http://www.w3.org/2000/svg">
<path d="M12.0196 2.91052C8.7096 2.91052 6.0196 5.60052 6.0196 8.91052V11.8005C6.0196 12.4105 5.7596 13.3405 5.4496 13.8605L4.2996 15.7705C3.5896 16.9505 4.0796 18.2605 5.3796 18.7005C9.6896 20.1405 14.3396 20.1405 18.6496 18.7005C19.8596 18.3005 20.3896 16.8705 19.7296 15.7705L18.5796 13.8605C18.2796 13.3405 18.0196 12.4105 18.0196 11.8005V8.91052C18.0196 5.61052 15.3196 2.91052 12.0196 2.91052Z" stroke="#541F5C" stroke-width="1.5" stroke-miterlimit="10" stroke-linecap="round"/>
<path d="M13.8699 3.20104C13.5599 3.11104 13.2399 3.04104 12.9099 3.00104C11.9499 2.88104 11.0299 2.95104 10.1699 3.20104C10.4599 2.46104 11.1799 1.94104 12.0199 1.94104C12.8599 1.94104 13.5799 2.46104 13.8699 3.20104Z" stroke="#541F5C" stroke-width="1.5" stroke-miterlimit="10" stroke-linecap="round" stroke-linejoin="round"/>
<path d="M15.0195 19.059C15.0195 20.709 13.6695 22.059 12.0195 22.059C11.1995 22.059 10.4395 21.719 9.89953 21.179C9.35953 20.639 9.01953 19.879 9.01953 19.059" stroke="#541F5C" stroke-width="1.5" stroke-miterlimit="10"/>
</svg>
