<svg width="24" height="24" viewBox="0 0 24 24" fill="none" xmlns="http://www.w3.org/2000/svg">
<path d="M11 11.5C11 12.327 11.673 13 12.5 13C13.327 13 14 12.327 14 11.5C14 10.673 13.327 10 12.5 10C11.673 10 11 10.673 11 11.5Z" fill="#541F5C"/>
<path d="M11 16.5C11 17.327 11.673 18 12.5 18C13.327 18 14 17.327 14 16.5C14 15.673 13.327 15 12.5 15C11.673 15 11 15.673 11 16.5Z" fill="#541F5C"/>
<path d="M11 6.5C11 7.327 11.673 8 12.5 8C13.327 8 14 7.327 14 6.5C14 5.673 13.327 5 12.5 5C11.673 5 11 5.673 11 6.5Z" fill="#541F5C"/>
</svg>
