<svg width="37" height="37" viewBox="0 0 37 37" fill="none" xmlns="http://www.w3.org/2000/svg">
<path d="M31.6042 15.7096H27.1488C23.495 15.7096 20.5196 12.7342 20.5196 9.08043V4.62501C20.5196 3.77709 19.8259 3.08334 18.9779 3.08334H12.4413C7.69294 3.08334 3.85419 6.16668 3.85419 11.6704V25.3296C3.85419 30.8333 7.69294 33.9167 12.4413 33.9167H24.5588C29.3071 33.9167 33.1459 30.8333 33.1459 25.3296V17.2513C33.1459 16.4033 32.4521 15.7096 31.6042 15.7096Z" fill="#541F5C"/>
<path d="M24.3583 3.40709C23.7262 2.77501 22.6317 3.20668 22.6317 4.08543V9.46584C22.6317 11.7167 24.5433 13.5821 26.8712 13.5821C28.3358 13.5975 30.3708 13.5975 32.1129 13.5975C32.9917 13.5975 33.4542 12.5646 32.8375 11.9479C30.6175 9.71251 26.64 5.68876 24.3583 3.40709Z" fill="#541F5C"/>
<path d="M10.639 28V21.7H12.844C13.336 21.7 13.744 21.784 14.068 21.952C14.392 22.114 14.632 22.339 14.788 22.627C14.95 22.909 15.031 23.23 15.031 23.59C15.031 23.932 14.953 24.247 14.797 24.535C14.647 24.817 14.41 25.042 14.086 25.21C13.762 25.378 13.348 25.462 12.844 25.462H11.593V28H10.639ZM11.593 24.679H12.799C13.249 24.679 13.57 24.583 13.762 24.391C13.96 24.193 14.059 23.926 14.059 23.59C14.059 23.242 13.96 22.972 13.762 22.78C13.57 22.582 13.249 22.483 12.799 22.483H11.593V24.679ZM15.974 28V21.7H18.017C18.755 21.7 19.361 21.829 19.835 22.087C20.315 22.345 20.669 22.711 20.897 23.185C21.131 23.653 21.248 24.211 21.248 24.859C21.248 25.501 21.131 26.059 20.897 26.533C20.669 27.001 20.315 27.364 19.835 27.622C19.361 27.874 18.755 28 18.017 28H15.974ZM16.928 27.19H17.981C18.551 27.19 19.001 27.097 19.331 26.911C19.667 26.725 19.907 26.458 20.051 26.11C20.201 25.762 20.276 25.345 20.276 24.859C20.276 24.373 20.201 23.953 20.051 23.599C19.907 23.245 19.667 22.975 19.331 22.789C19.001 22.597 18.551 22.501 17.981 22.501H16.928V27.19ZM22.3021 28V21.7H26.2531V22.474H23.2561V24.463H25.7401V25.228H23.2561V28H22.3021Z" fill="white"/>
</svg>
