<svg width="20" height="20" viewBox="0 0 20 20" fill="none" xmlns="http://www.w3.org/2000/svg">
<path d="M18.6914 14.2286C17.1457 14.0871 15.6386 13.6943 14.2143 13.06C13.5143 12.7443 12.6957 13.03 12.3514 13.71L11.38 15.6386C8.43429 14.0057 5.99143 11.5614 4.36143 8.61857L6.28857 7.64857C6.96857 7.30714 7.25571 6.48857 6.94143 5.78571C6.30571 4.36286 5.91143 2.85714 5.77143 1.30857C5.70286 0.562857 5.09571 0 4.35714 0H0.714286C0.32 0 0 0.32 0 0.714286C0 3.62286 0.634286 6.42714 1.88429 9.05286C3.78286 12.9986 7.00143 16.2171 10.95 18.1171C13.5743 19.3671 16.3786 20 19.2857 20C19.68 20 20 19.68 20 19.2857V15.6429C20 14.9043 19.4371 14.2957 18.6914 14.2286Z" fill="white"/>
</svg>
