<svg width="48" height="48" viewBox="0 0 48 48" fill="none" xmlns="http://www.w3.org/2000/svg">
<rect width="48" height="48" rx="4" fill="#C9B7CB"/>
<rect width="48" height="48" rx="4" fill="#C9B7CB"/>
<g clip-path="url(#clip0_959_10119)">
<path d="M34.122 29.4527C33.872 29.4527 33.6693 29.25 33.6693 29V23.4858C33.6693 22.9553 33.4627 22.4565 33.0875 22.0813L31.9117 20.9055C31.7348 20.7287 31.7348 20.4421 31.9117 20.2652C32.0885 20.0885 32.3751 20.0884 32.5519 20.2652L33.7278 21.441C34.274 21.9873 34.5748 22.7135 34.5748 23.4858V28.9999C34.5747 29.2501 34.372 29.4527 34.122 29.4527Z" fill="#454045"/>
<path d="M13.878 29.4527C13.628 29.4527 13.4253 29.25 13.4253 29V23.4859C13.4253 22.7135 13.7261 21.9874 14.2723 21.4412L15.4481 20.2653C15.6249 20.0885 15.9115 20.0885 16.0884 20.2652C16.2652 20.4421 16.2652 20.7287 16.0884 20.9056L14.9125 22.0814C14.5373 22.4565 14.3307 22.9553 14.3307 23.4859V29.0001C14.3307 29.2501 14.128 29.4527 13.878 29.4527Z" fill="#454045"/>
<path d="M32.2317 21.4391C32.7032 21.4391 33.0854 21.0569 33.0854 20.5854C33.0854 20.1139 32.7032 19.7318 32.2317 19.7318C31.7602 19.7318 31.3781 20.1139 31.3781 20.5854C31.3781 21.0569 31.7602 21.4391 32.2317 21.4391Z" fill="#665E66"/>
<path d="M15.7683 21.4391C16.2398 21.4391 16.622 21.0569 16.622 20.5854C16.622 20.1139 16.2398 19.7318 15.7683 19.7318C15.2969 19.7318 14.9147 20.1139 14.9147 20.5854C14.9147 21.0569 15.2969 21.4391 15.7683 21.4391Z" fill="#665E66"/>
<path d="M25.5854 21.1951L29.2406 22.1749C30.5733 22.5321 31.5 23.7399 31.5 25.1197V29H16.5V25.1197C16.5 23.7399 17.4267 22.5321 18.7594 22.1749L22.4146 21.1951H25.5854Z" fill="#FB9927"/>
<path d="M29.718 22.3464C29.8844 22.7244 29.9756 23.1403 29.9756 23.5732V29H31.5V25.1197C31.5 23.9115 30.7895 22.8353 29.718 22.3464Z" fill="#FFB662"/>
<path d="M24 22.7805C23.1245 22.7805 22.4147 22.0707 22.4147 21.1951V19.2439H25.5854V21.1951C25.5854 22.0707 24.8756 22.7805 24 22.7805Z" fill="#F1D0A5"/>
<path d="M22.4147 20.4888C22.9095 20.6695 23.4435 20.7683 24 20.7683C24.5566 20.7683 25.0906 20.6695 25.5854 20.4888V19.2439H22.4147V20.4888Z" fill="#F1B986"/>
<path d="M20.4634 12.5975V16.1341C20.4634 18.0874 22.0468 19.6707 24 19.6707C25.9532 19.6707 27.5366 18.0874 27.5366 16.1341V12.5975H20.4634Z" fill="#FFDDA6"/>
<path d="M26.3171 12.5975V17.3536C26.3171 18.0175 26.1338 18.6384 25.8156 19.1692C26.8464 18.5512 27.5366 17.4234 27.5366 16.1341V12.5975H26.3171Z" fill="#F1B986"/>
<path d="M26.4391 13.817H27.5366V11.439C27.5366 10.6982 26.936 10.0976 26.1952 10.0976H25.2196V12.5976C25.2195 13.2711 25.7655 13.817 26.4391 13.817Z" fill="#666666"/>
<path d="M24 13.8171H20.4634V11.439C20.4634 10.092 21.5554 9 22.9024 9H24.1219C24.7281 9 25.2195 9.49137 25.2195 10.0976V12.5976C25.2195 13.2711 24.6735 13.8171 24 13.8171Z" fill="#808080"/>
<path d="M38.3903 31.0733H9.60979C9.27299 31.0733 9 30.8003 9 30.4635V29.6099C9 29.2731 9.27299 29.0002 9.60979 29.0002H38.3903C38.727 29.0002 39 29.2731 39 29.6099V30.4635C39 30.8003 38.727 31.0733 38.3903 31.0733Z" fill="#665E66"/>
<path d="M38.3903 29H36.683C37.0197 29 37.2927 29.273 37.2927 29.6097V30.4633C37.2927 30.8001 37.0197 31.0731 36.683 31.0731H38.3903C38.727 31.0731 39 30.8001 39 30.4633V29.6098C39 29.273 38.727 29 38.3903 29Z" fill="#544F57"/>
<path d="M37.1707 33.1463H10.8293C10.4925 33.1463 10.2195 32.8734 10.2195 32.5366V31.0732H37.7805V32.5366C37.7805 32.8733 37.5075 33.1463 37.1707 33.1463Z" fill="#541F5C"/>
<path d="M35.9512 31.0731V32.5366C35.9512 32.8733 35.6782 33.1463 35.3414 33.1463H37.1707C37.5075 33.1463 37.7805 32.8733 37.7805 32.5366V31.0731H35.9512Z" fill="#7F388A"/>
<path d="M35.9573 39H12.0426C11.7092 39 11.439 38.7298 11.439 38.3964V33.1463H36.5609V38.3964C36.5609 38.7298 36.2907 39 35.9573 39Z" fill="#672C70"/>
<path d="M11.439 33.1464V34.7317H34.6097C34.8117 34.7317 34.9755 34.8955 34.9755 35.0976V39H35.9573C36.2907 39 36.5609 38.7298 36.5609 38.3964V33.1463H11.439V33.1464Z" fill="#672C70"/>
<path d="M13.8781 33.1464H34.122V39H13.8781V33.1464Z" fill="#541F5C"/>
<path d="M13.8781 33.1464H34.122V34.7317H13.8781V33.1464Z" fill="#672C70"/>
<path d="M19.2789 29V27.7805C19.2789 27.5304 19.4816 27.3278 19.7316 27.3278C19.9816 27.3278 20.1843 27.5304 20.1843 27.7805V29H19.2789Z" fill="#FFB662"/>
<path d="M27.8156 29V27.7805C27.8156 27.5304 28.0182 27.3278 28.2682 27.3278C28.5183 27.3278 28.7209 27.5304 28.7209 27.7805V29H27.8156Z" fill="#FFB662"/>
</g>
<defs>
<clipPath id="clip0_959_10119">
<rect width="30" height="30" fill="white" transform="translate(9 9)"/>
</clipPath>
</defs>
</svg>
