<svg width="48" height="48" viewBox="0 0 48 48" fill="none" xmlns="http://www.w3.org/2000/svg">
<rect width="48" height="48" rx="4" fill="#C9B7CB"/>
<g clip-path="url(#clip0_959_10774)">
<g clip-path="url(#clip1_959_10774)">
<path d="M27.6051 16.2278C27.3561 16.2278 27.1544 16.026 27.1544 15.7772V12.186C27.1544 11.9371 27.3561 11.7354 27.6051 11.7354C27.854 11.7354 28.0557 11.9371 28.0557 12.186V15.7772C28.0558 16.0261 27.854 16.2278 27.6051 16.2278Z" fill="#DFDFF5"/>
<path d="M29.2039 11.6975C29.2039 12.5707 28.4881 13.2787 27.605 13.2787C26.7219 13.2787 26.006 12.5707 26.006 11.6975C26.006 10.8242 27.605 9 27.605 9C27.605 9 29.2039 10.8242 29.2039 11.6975Z" fill="#FFAA00"/>
<path d="M27.6051 9C27.6051 9 27.409 9.22382 27.1544 9.55172C27.6273 10.1608 28.3027 11.1298 28.3027 11.6975C28.3027 12.4159 27.8179 13.0221 27.1544 13.2146C27.2974 13.2561 27.4485 13.2787 27.6051 13.2787C28.4881 13.2787 29.204 12.5707 29.204 11.6975C29.204 10.8242 27.6051 9 27.6051 9V9Z" fill="#E98701"/>
<path d="M35.3042 17.1164C35.2706 17.6374 35.1588 18.4979 34.7916 19.4654C34.4623 20.3325 33.9275 21.2855 33.0592 22.1574C30.8515 24.3748 28.1192 24.4264 27.6054 24.4264C27.0916 24.4264 24.3593 24.3748 22.1516 22.1574C21.2851 21.2879 20.7515 20.3379 20.4221 19.472H20.4216C20.0538 18.5052 19.9408 17.6447 19.9072 17.1219C19.8922 16.899 20.0868 16.7187 20.308 16.7518C21.2538 16.893 22.7417 16.9735 24.4422 16.4765C25.8892 16.0535 26.9588 15.3715 27.6053 14.8757C28.3036 15.3937 29.5865 16.2145 31.4114 16.6124C32.8325 16.9219 34.0596 16.8635 34.9063 16.7458C35.1269 16.7156 35.3186 16.8953 35.3042 17.1164Z" fill="#672C70"/>
<path d="M35.3043 17.1164C35.2707 17.6374 35.1589 18.4979 34.7917 19.4654C34.4624 20.3325 33.9276 21.2855 33.0593 22.1574C30.8516 24.3748 28.1192 24.4265 27.6055 24.4265C27.4606 24.4265 27.1398 24.4223 26.7041 24.3669C27.8146 24.2251 29.6708 23.7498 31.2566 22.1574C32.1038 21.3066 32.6339 20.3782 32.9649 19.5279C32.9733 19.5069 32.9811 19.4865 32.9889 19.4654C33.3561 18.498 33.4678 17.6375 33.5015 17.1165C33.5087 17.0071 33.4655 16.908 33.3928 16.8395C33.4366 16.8401 33.4805 16.8406 33.5237 16.8406C34.0525 16.8412 34.5194 16.7998 34.9064 16.7457C35.127 16.7156 35.3187 16.8953 35.3043 17.1164Z" fill="#9946A4" fill-opacity="0.3"/>
<path d="M35.3042 17.1164C35.2706 17.6374 35.1588 18.4979 34.7916 19.4654C33.9504 19.5717 32.7696 19.6126 31.4116 19.3163C29.5866 18.9186 28.3037 18.0977 27.6054 17.5798C26.9589 18.0755 25.8892 18.7575 24.4423 19.1806C22.809 19.6577 21.3717 19.6024 20.4223 19.472H20.4217C20.0539 18.5052 19.9409 17.6447 19.9073 17.1219C19.8923 16.899 20.087 16.7187 20.3081 16.7518C21.2539 16.893 22.7418 16.9735 24.4423 16.4765C25.8893 16.0535 26.9589 15.3715 27.6054 14.8757C28.3037 15.3937 29.5866 16.2145 31.4116 16.6124C32.8327 16.9219 34.0597 16.8635 34.9064 16.7458C35.1269 16.7156 35.3186 16.8953 35.3042 17.1164Z" fill="#9946A4"/>
<path d="M35.3043 17.1164C35.2707 17.6374 35.1589 18.4979 34.7917 19.4654C34.2918 19.5285 33.6711 19.5688 32.965 19.5278C32.9734 19.5068 32.9812 19.4864 32.989 19.4654C33.3562 18.4979 33.4679 17.6374 33.5016 17.1164C33.5088 17.0071 33.4655 16.9079 33.3928 16.8394C33.4367 16.84 33.4806 16.8406 33.5238 16.8406C34.0526 16.8412 34.5195 16.7997 34.9065 16.7456C35.127 16.7156 35.3187 16.8953 35.3043 17.1164Z" fill="#672C70" fill-opacity="0.3"/>
<path d="M38.0291 21.0891L29.1187 23.168C29.2506 22.917 29.3252 22.632 29.3252 22.3309V21.9284H26.9831C25.3029 21.9284 23.6129 21.7875 21.963 22.1799C20.1722 22.6058 18.726 23.4946 17.3321 24.6537C16.562 25.2941 15.7918 25.9346 15.0217 26.575C13.5506 27.7982 9.27765 31.3822 9.27765 31.3822C9.1446 31.4929 9.06763 31.657 9.06763 31.83V38.7209C9.06763 38.9571 9.34313 39.0861 9.52455 38.9348L21.2238 29.1817C21.4253 29.0079 21.9559 28.9743 21.9559 28.9743L27.5312 28.7333C27.7034 28.7258 27.8753 28.7121 28.0465 28.6922C28.843 28.5994 29.6181 28.3728 30.3389 28.0217L38.3725 22.7695C38.7114 22.6295 38.9326 22.2991 38.9326 21.9324C38.9325 21.4428 38.5177 21.0555 38.0291 21.0891Z" fill="#D88A55"/>
<path d="M38.0291 21.0891L38.029 21.0891C38.007 21.4323 37.7921 21.7358 37.4711 21.8683L29.4375 27.1205C28.7166 27.4716 27.9415 27.6983 27.1451 27.7909C26.9739 27.8109 26.802 27.8245 26.6297 27.832L21.0545 28.0731C21.0545 28.0731 20.5238 28.1067 20.3224 28.2805L9.0675 37.9733V38.7209C9.0675 38.9571 9.34301 39.0861 9.52443 38.9349L21.2237 29.1818C21.4251 29.008 21.9558 28.9744 21.9558 28.9744L27.531 28.7334C27.7033 28.7259 27.8752 28.7122 28.0464 28.6923C28.8429 28.5996 29.6179 28.3729 30.3388 28.0219L38.3724 22.7696C38.7113 22.6297 38.9324 22.2993 38.9324 21.9326C38.9325 21.4428 38.5177 21.0555 38.0291 21.0891Z" fill="#C57A44"/>
<path d="M27.7137 23.2223L23.8712 23.6326C23.8712 24.1141 24.2886 24.4894 24.7675 24.4383L27.7137 24.1237C28.6301 24.0259 29.3251 23.2527 29.3251 22.3312V21.9287C29.3017 21.9287 29.2784 21.9287 29.255 21.9287C29.0569 22.6173 28.4584 23.1428 27.7137 23.2223Z" fill="#C57A44"/>
<path d="M19.1403 31.5566C19.6664 31.5566 20.0929 31.1301 20.0929 30.604C20.0929 30.0779 19.6664 29.6514 19.1403 29.6514C18.6141 29.6514 18.1876 30.0779 18.1876 30.604C18.1876 31.1301 18.6141 31.5566 19.1403 31.5566Z" fill="#E10042"/>
<path d="M19.8137 29.9309C19.7253 29.8426 19.6237 29.7759 19.5154 29.7295C19.7291 30.0944 19.6805 30.5706 19.3675 30.8836C19.0838 31.1672 18.666 31.2339 18.3185 31.085C18.3588 31.1538 18.4074 31.2191 18.4664 31.2781C18.8384 31.6502 19.4416 31.6502 19.8136 31.2781C20.1857 30.9061 20.1857 30.3029 19.8137 29.9309Z" fill="#BC003F"/>
<path d="M17.7928 30.2092C18.319 30.2092 18.7455 29.7827 18.7455 29.2565C18.7455 28.7304 18.319 28.3039 17.7928 28.3039C17.2667 28.3039 16.8402 28.7304 16.8402 29.2565C16.8402 29.7827 17.2667 30.2092 17.7928 30.2092Z" fill="#E10042"/>
<path d="M16.4459 28.8623C16.9721 28.8623 17.3986 28.4358 17.3986 27.9097C17.3986 27.3835 16.9721 26.957 16.4459 26.957C15.9198 26.957 15.4933 27.3835 15.4933 27.9097C15.4933 28.4358 15.9198 28.8623 16.4459 28.8623Z" fill="#E10042"/>
<path d="M15.0983 27.5147C15.6244 27.5147 16.0509 27.0881 16.0509 26.562C16.0509 26.0359 15.6244 25.6094 15.0983 25.6094C14.5721 25.6094 14.1456 26.0359 14.1456 26.562C14.1456 27.0881 14.5721 27.5147 15.0983 27.5147Z" fill="#E10042"/>
<path d="M18.4669 28.5834C18.3785 28.4951 18.2769 28.4284 18.1686 28.382C18.3823 28.7469 18.3337 29.223 18.0207 29.536C17.737 29.8197 17.3192 29.8864 16.9717 29.7375C17.012 29.8063 17.0606 29.8716 17.1196 29.9307C17.4916 30.3027 18.0948 30.3027 18.4668 29.9307C18.8389 29.5586 18.8389 28.9554 18.4669 28.5834Z" fill="#BC003F"/>
<path d="M17.1193 27.2366C17.031 27.1482 16.9293 27.0816 16.8211 27.0352C17.0348 27.4001 16.9862 27.8762 16.6732 28.1892C16.3895 28.4729 15.9717 28.5396 15.6241 28.3907C15.6645 28.4595 15.713 28.5248 15.7721 28.5838C16.1441 28.9558 16.7472 28.9558 17.1193 28.5838C17.4913 28.2118 17.4913 27.6086 17.1193 27.2366Z" fill="#BC003F"/>
<path d="M15.7726 25.8889C15.6843 25.8006 15.5826 25.7339 15.4744 25.6875C15.6881 26.0524 15.6395 26.5286 15.3265 26.8416C15.0428 27.1252 14.625 27.1919 14.2775 27.043C14.3178 27.1118 14.3663 27.1771 14.4254 27.2362C14.7974 27.6082 15.4006 27.6082 15.7726 27.2362C16.1447 26.8641 16.1447 26.261 15.7726 25.8889Z" fill="#BC003F"/>
</g>
</g>
<defs>
<clipPath id="clip0_959_10774">
<rect width="30" height="30" fill="white" transform="translate(9 9)"/>
</clipPath>
<clipPath id="clip1_959_10774">
<rect width="30" height="30" fill="white" transform="translate(9 9)"/>
</clipPath>
</defs>
</svg>
