<svg width="48" height="48" viewBox="0 0 48 48" fill="none" xmlns="http://www.w3.org/2000/svg">
<rect width="48" height="48" rx="4" fill="#C9B7CB"/>
<g clip-path="url(#clip0_722_18983)">
<g clip-path="url(#clip1_722_18983)">
<path d="M27.6049 16.2278C27.356 16.2278 27.1543 16.026 27.1543 15.7772V12.186C27.1543 11.9371 27.356 11.7354 27.6049 11.7354C27.8539 11.7354 28.0556 11.9371 28.0556 12.186V15.7772C28.0557 16.0261 27.8539 16.2278 27.6049 16.2278Z" fill="#DFDFF5"/>
<path d="M29.2038 11.6975C29.2038 12.5707 28.488 13.2787 27.6048 13.2787C26.7218 13.2787 26.0059 12.5707 26.0059 11.6975C26.0059 10.8242 27.6048 9 27.6048 9C27.6048 9 29.2038 10.8242 29.2038 11.6975Z" fill="#FFAA00"/>
<path d="M27.6049 9C27.6049 9 27.4089 9.22382 27.1543 9.55172C27.6272 10.1608 28.3026 11.1298 28.3026 11.6975C28.3026 12.4159 27.8178 13.0221 27.1543 13.2146C27.2973 13.2561 27.4484 13.2787 27.6049 13.2787C28.488 13.2787 29.2039 12.5707 29.2039 11.6975C29.2039 10.8242 27.6049 9 27.6049 9V9Z" fill="#E98701"/>
<path d="M35.3041 17.1165C35.2705 17.6375 35.1587 18.498 34.7915 19.4654C34.4622 20.3325 33.9274 21.2855 33.0591 22.1575C30.8514 24.3748 28.119 24.4265 27.6053 24.4265C27.0915 24.4265 24.3592 24.3748 22.1514 22.1575C21.285 21.288 20.7514 20.3379 20.422 19.472H20.4214C20.0537 18.5052 19.9407 17.6447 19.9071 17.1219C19.892 16.899 20.0867 16.7187 20.3079 16.7518C21.2537 16.893 22.7415 16.9735 24.4421 16.4766C25.889 16.0535 26.9587 15.3715 27.6052 14.8758C28.3035 15.3937 29.5864 16.2146 31.4113 16.6124C32.8324 16.9219 34.0595 16.8636 34.9061 16.7458C35.1268 16.7156 35.3185 16.8953 35.3041 17.1165Z" fill="#672C70"/>
<path d="M35.3043 17.1165C35.2707 17.6374 35.1589 18.498 34.7917 19.4654C34.4624 20.3325 33.9276 21.2855 33.0593 22.1575C30.8516 24.3748 28.1192 24.4265 27.6055 24.4265C27.4606 24.4265 27.1398 24.4223 26.7041 24.367C27.8146 24.2251 29.6708 23.7498 31.2566 22.1575C32.1038 21.3066 32.6339 20.3782 32.9649 19.5279C32.9733 19.5069 32.9811 19.4865 32.9889 19.4655C33.3561 18.498 33.4678 17.6375 33.5015 17.1165C33.5087 17.0072 33.4655 16.908 33.3928 16.8395C33.4366 16.8401 33.4805 16.8407 33.5237 16.8407C34.0525 16.8412 34.5194 16.7998 34.9064 16.7457C35.127 16.7156 35.3187 16.8953 35.3043 17.1165Z" fill="#9946A4" fill-opacity="0.3"/>
<path d="M35.304 17.1165C35.2704 17.6375 35.1586 18.498 34.7914 19.4654C33.9501 19.5717 32.7694 19.6126 31.4113 19.3164C29.5864 18.9186 28.3034 18.0978 27.6052 17.5798C26.9586 18.0755 25.889 18.7575 24.4421 19.1806C22.8088 19.6577 21.3715 19.6024 20.422 19.472H20.4214C20.0537 18.5052 19.9407 17.6447 19.9071 17.1219C19.892 16.899 20.0867 16.7187 20.3079 16.7518C21.2537 16.893 22.7415 16.9735 24.4421 16.4766C25.889 16.0535 26.9587 15.3715 27.6052 14.8758C28.3035 15.3937 29.5864 16.2146 31.4113 16.6124C32.8324 16.9219 34.0595 16.8636 34.9062 16.7458C35.1267 16.7156 35.3184 16.8953 35.304 17.1165Z" fill="#9946A4"/>
<path d="M35.3042 17.1165C35.2706 17.6374 35.1588 18.498 34.7916 19.4654C34.2916 19.5285 33.6709 19.5688 32.9648 19.5279C32.9733 19.5068 32.9811 19.4864 32.9889 19.4654C33.356 18.498 33.4678 17.6374 33.5015 17.1165C33.5087 17.0071 33.4654 16.9079 33.3927 16.8394C33.4366 16.84 33.4804 16.8406 33.5237 16.8406C34.0525 16.8412 34.5194 16.7997 34.9064 16.7456C35.1269 16.7156 35.3186 16.8953 35.3042 17.1165Z" fill="#672C70" fill-opacity="0.3"/>
<path d="M38.0289 21.0891L29.1185 23.168C29.2503 22.917 29.3249 22.632 29.3249 22.3309V21.9284H26.9829C25.3027 21.9284 23.6126 21.7875 21.9627 22.1799C20.172 22.6058 18.7258 23.4946 17.3319 24.6537C16.5617 25.2941 15.7916 25.9346 15.0214 26.575C13.5504 27.7982 9.2774 31.3822 9.2774 31.3822C9.14436 31.4929 9.06738 31.657 9.06738 31.83V38.7209C9.06738 38.9571 9.34289 39.0861 9.52431 38.9348L21.2236 29.1817C21.425 29.0079 21.9557 28.9743 21.9557 28.9743L27.5309 28.7333C27.7032 28.7258 27.8751 28.7121 28.0463 28.6922C28.8427 28.5994 29.6178 28.3728 30.3386 28.0217L38.3723 22.7695C38.7112 22.6295 38.9323 22.2991 38.9323 21.9324C38.9323 21.4428 38.5175 21.0555 38.0289 21.0891Z" fill="#D88A55"/>
<path d="M38.029 21.0891L38.0288 21.0891C38.0069 21.4323 37.7919 21.7358 37.4709 21.8683L29.4373 27.1205C28.7164 27.4716 27.9414 27.6983 27.145 27.7909C26.9738 27.8109 26.8019 27.8246 26.6296 27.832L21.0544 28.0731C21.0544 28.0731 20.5237 28.1067 20.3223 28.2805L9.06738 37.9733V38.7209C9.06738 38.9571 9.34289 39.0862 9.52431 38.9349L21.2236 29.1818C21.425 29.0081 21.9557 28.9744 21.9557 28.9744L27.5309 28.7334C27.7032 28.7259 27.8751 28.7122 28.0463 28.6923C28.8427 28.5996 29.6177 28.3729 30.3386 28.0219L38.3722 22.7696C38.7112 22.6297 38.9323 22.2993 38.9323 21.9326C38.9324 21.4428 38.5176 21.0556 38.029 21.0891Z" fill="#C57A44"/>
<path d="M27.7136 23.2223L23.8711 23.6326C23.8711 24.1141 24.2885 24.4894 24.7674 24.4383L27.7136 24.1237C28.63 24.0259 29.325 23.2527 29.325 22.3312V21.9287C29.3016 21.9287 29.2783 21.9287 29.2549 21.9287C29.0567 22.6173 28.4582 23.1428 27.7136 23.2223Z" fill="#C57A44"/>
<path d="M19.1401 31.5566C19.6663 31.5566 20.0928 31.1301 20.0928 30.604C20.0928 30.0779 19.6663 29.6514 19.1401 29.6514C18.614 29.6514 18.1875 30.0779 18.1875 30.604C18.1875 31.1301 18.614 31.5566 19.1401 31.5566Z" fill="#E10042"/>
<path d="M19.8135 29.9309C19.7252 29.8426 19.6235 29.7759 19.5153 29.7295C19.729 30.0944 19.6804 30.5706 19.3674 30.8836C19.0837 31.1672 18.6659 31.2339 18.3184 31.085C18.3587 31.1538 18.4072 31.2191 18.4663 31.2781C18.8383 31.6502 19.4415 31.6502 19.8135 31.2781C20.1856 30.9061 20.1856 30.3029 19.8135 29.9309Z" fill="#BC003F"/>
<path d="M17.7925 30.2091C18.3186 30.2091 18.7451 29.7826 18.7451 29.2565C18.7451 28.7304 18.3186 28.3039 17.7925 28.3039C17.2664 28.3039 16.8398 28.7304 16.8398 29.2565C16.8398 29.7826 17.2664 30.2091 17.7925 30.2091Z" fill="#E10042"/>
<path d="M16.4458 28.8623C16.9719 28.8623 17.3984 28.4358 17.3984 27.9097C17.3984 27.3835 16.9719 26.957 16.4458 26.957C15.9197 26.957 15.4932 27.3835 15.4932 27.9097C15.4932 28.4358 15.9197 28.8623 16.4458 28.8623Z" fill="#E10042"/>
<path d="M15.0981 27.5147C15.6243 27.5147 16.0508 27.0881 16.0508 26.562C16.0508 26.0359 15.6243 25.6094 15.0981 25.6094C14.572 25.6094 14.1455 26.0359 14.1455 26.562C14.1455 27.0881 14.572 27.5147 15.0981 27.5147Z" fill="#E10042"/>
<path d="M18.4669 28.5834C18.3785 28.4951 18.2769 28.4284 18.1686 28.382C18.3823 28.7469 18.3337 29.223 18.0207 29.536C17.737 29.8197 17.3192 29.8864 16.9717 29.7375C17.012 29.8063 17.0606 29.8716 17.1196 29.9307C17.4916 30.3027 18.0948 30.3027 18.4668 29.9307C18.8389 29.5586 18.8389 28.9554 18.4669 28.5834Z" fill="#BC003F"/>
<path d="M17.1192 27.2366C17.0309 27.1482 16.9292 27.0816 16.821 27.0352C17.0347 27.4001 16.986 27.8762 16.6731 28.1892C16.3894 28.4729 15.9715 28.5396 15.624 28.3907C15.6643 28.4595 15.7129 28.5248 15.7719 28.5838C16.144 28.9558 16.7471 28.9558 17.1191 28.5838C17.4912 28.2118 17.4912 27.6086 17.1192 27.2366Z" fill="#BC003F"/>
<path d="M15.7725 25.8889C15.6842 25.8006 15.5825 25.7339 15.4743 25.6875C15.688 26.0524 15.6394 26.5286 15.3264 26.8416C15.0427 27.1252 14.6249 27.1919 14.2773 27.043C14.3177 27.1118 14.3662 27.1771 14.4253 27.2362C14.7973 27.6082 15.4004 27.6082 15.7725 27.2362C16.1445 26.8641 16.1445 26.261 15.7725 25.8889Z" fill="#BC003F"/>
</g>
</g>
<defs>
<clipPath id="clip0_722_18983">
<rect width="30" height="30" fill="white" transform="translate(9 9)"/>
</clipPath>
<clipPath id="clip1_722_18983">
<rect width="30" height="30" fill="white" transform="translate(9 9)"/>
</clipPath>
</defs>
</svg>
