<svg width="24" height="24" viewBox="0 0 24 24" fill="none" xmlns="http://www.w3.org/2000/svg">
<path d="M11.5 19C7.36585 19 4 15.6341 4 11.5C4 7.36585 7.36585 4 11.5 4C15.6341 4 19 7.36585 19 11.5C19 15.6341 15.6341 19 11.5 19ZM11.5 5.09756C7.96585 5.09756 5.09756 7.97317 5.09756 11.5C5.09756 15.0268 7.96585 17.9024 11.5 17.9024C15.0341 17.9024 17.9024 15.0268 17.9024 11.5C17.9024 7.97317 15.0341 5.09756 11.5 5.09756Z" fill="#541F5C"/>
<path d="M19.3584 20C19.1953 20 19.0322 19.94 18.9034 19.8113L17.1867 18.0958C16.9378 17.847 16.9378 17.4353 17.1867 17.1866C17.4356 16.9378 17.8476 16.9378 18.0966 17.1866L19.8133 18.9021C20.0622 19.1508 20.0622 19.5625 19.8133 19.8113C19.6845 19.94 19.5215 20 19.3584 20Z" fill="#541F5C"/>
</svg>
