<svg width="24" height="24" viewBox="0 0 24 24" fill="none" xmlns="http://www.w3.org/2000/svg">
<path d="M23.1812 8.08093L17.7485 2.67253C17.3002 2.22628 16.8455 2 16.3971 2C15.7815 2 15.0625 2.46618 15.0625 3.78003V5.62132C11.1154 5.79258 7.42941 7.40406 4.61803 10.2027C1.64034 13.1668 0.000328134 17.1079 8.51259e-09 21.2999C-4.68665e-05 21.6011 0.1935 21.8686 0.480469 21.9639C0.553688 21.9882 0.628734 22 0.703031 22C0.919922 22 1.12987 21.8998 1.2653 21.7204C4.58484 17.3216 9.5827 14.722 15.0625 14.5167V16.3296C15.0625 17.6434 15.7814 18.1096 16.3971 18.1097H16.3971C16.8455 18.1097 17.3003 17.8834 17.7485 17.4371L23.1812 12.0287C23.7092 11.5031 24 10.8021 24 10.0548C24 9.30751 23.7092 8.60652 23.1812 8.08093ZM22.1869 11.0388L16.7541 16.4473C16.6499 16.551 16.5636 16.6165 16.5 16.6563C16.4832 16.5834 16.4687 16.4763 16.4687 16.3296V13.8036C16.4687 13.417 16.1539 13.1036 15.7656 13.1036C12.6415 13.1036 9.6563 13.8162 6.89297 15.2215C4.90922 16.2303 3.09581 17.5884 1.56014 19.2057C2.58173 12.3134 8.56308 7.00605 15.7656 7.00605C16.1539 7.00605 16.4687 6.69265 16.4687 6.30608V3.78003C16.4687 3.63336 16.4832 3.52626 16.4999 3.45337C16.5636 3.49318 16.6499 3.5587 16.7541 3.66243L22.1869 9.07088C22.4493 9.33206 22.5938 9.68149 22.5938 10.0548C22.5938 10.4282 22.4493 10.7776 22.1869 11.0388Z" fill="#541F5C"/>
</svg>
