<svg width="48" height="48" viewBox="0 0 48 48" fill="none" xmlns="http://www.w3.org/2000/svg">
<rect width="48" height="48" rx="4" fill="#C9B7CB"/>
<path fill-rule="evenodd" clip-rule="evenodd" d="M12.7514 22.6424C5.47437 35.3209 32.2011 34.7528 27.9423 23.4756C27.5949 23.378 27.3262 22.555 26.9584 22.5056C23.6851 22.0588 20.554 22.384 16.2455 22.1821C15.5781 22.1684 14.0023 22.1325 12.7514 22.6424V22.6424Z" fill="#C9D2DC"/>
<path fill-rule="evenodd" clip-rule="evenodd" d="M9 28.6813V35.8352C9 36.6102 9.63309 37.2433 10.4081 37.2433H37.5917C38.3651 37.2433 39 36.6102 39 35.835V28.6813H13.3563C13.0244 28.6813 12.7523 28.4094 12.7523 28.0773V16.7231C12.7523 15.6913 11.9089 14.8477 10.8771 14.8477C9.84366 14.8479 9 15.6913 9 16.7231L9 28.6813Z" fill="#541F5C"/>
<path fill-rule="evenodd" clip-rule="evenodd" d="M15.4473 22.1787C15.5278 25.2483 17.7059 27.825 20.6797 28.6822H26.2697L27.7874 26.1636L26.7353 23.4756C26.6565 24.2336 26.4032 24.747 25.8419 25.3117C25.8282 25.3254 25.8129 25.3407 25.7975 25.3542C25.3167 25.8248 24.7092 26.1928 24.0626 26.446C22.8649 26.9113 21.5303 26.9781 20.601 26.5554L18.4246 25.5648C16.9222 24.882 16.2738 23.5696 16.2465 22.1822C16.0479 22.1787 15.7709 22.1719 15.4473 22.1787V22.1787Z" fill="#B4BDC7"/>
<path fill-rule="evenodd" clip-rule="evenodd" d="M23.9985 30.2931C23.7967 32.5276 26.1306 34.8716 28.432 35.041H35.3959C38.173 35.041 38.9995 34.4628 38.9995 31.8261V28.6797H24.3938C24.2261 29.1672 24.0585 29.636 23.9985 30.2931V30.2931Z" fill="#672C70"/>
<path fill-rule="evenodd" clip-rule="evenodd" d="M22.9236 17.067L22.5898 17.7976L24.2428 18.5504C24.4207 18.6307 24.5953 18.7353 24.7647 18.8584C25.0487 18.2544 24.7271 17.2997 24.1128 17.0207L23.6303 16.8017C23.3632 16.6802 23.0451 16.7983 22.9236 17.067Z" fill="#EDA93B"/>
<path fill-rule="evenodd" clip-rule="evenodd" d="M22.0651 17.5586C21.7074 23.1827 19.0725 21.6409 18.4238 25.5644L20.6003 26.555C21.5295 26.9778 22.8641 26.9109 24.0619 26.4456C24.7291 26.1854 25.3537 25.8022 25.8414 25.3113C26.4026 24.7466 26.6558 24.2332 26.7345 23.4752C26.7414 23.4223 26.7448 23.3674 26.7499 23.3093C26.7636 23.109 26.7636 22.9055 26.7499 22.7002C26.7174 22.2159 26.6096 21.7265 26.4452 21.2612C26.0946 20.2722 25.4803 19.386 24.7634 18.8573C24.594 18.7341 24.4194 18.6295 24.2415 18.5492L22.5886 17.7964L22.0651 17.5586Z" fill="#FFDDA6"/>
<path fill-rule="evenodd" clip-rule="evenodd" d="M22.0648 17.5576C18.8822 16.1101 16.2814 19.1829 16.2455 22.0283C16.2437 22.0798 16.2437 22.1311 16.2455 22.1808C16.2728 23.5683 16.9214 24.8807 18.4236 25.5634C19.0722 21.6402 21.7071 23.1817 22.0648 17.5576Z" fill="#808080"/>
<path fill-rule="evenodd" clip-rule="evenodd" d="M22.0654 17.5578C19.8306 16.5413 17.8835 17.7528 16.9082 19.5511C17.9775 18.3671 19.574 17.7665 21.3501 18.5756L21.8738 18.8136L21.9285 18.8393C21.9901 18.4577 22.0363 18.0334 22.0654 17.5578Z" fill="#666666"/>
<path fill-rule="evenodd" clip-rule="evenodd" d="M22.0654 17.5586C22.0364 18.0223 21.9917 18.438 21.9336 18.811L23.5248 19.5348C23.7045 19.6169 23.8791 19.7213 24.0469 19.8444C24.7653 20.3713 25.378 21.2578 25.7287 22.2484C25.8949 22.7137 26.0008 23.2014 26.0333 23.6874C26.0471 23.8908 26.0471 24.0961 26.0333 24.2964C26.0299 24.353 26.0249 24.4095 26.0196 24.4624C25.9837 24.7995 25.9134 25.0888 25.7971 25.3539C25.8127 25.3401 25.828 25.3248 25.8418 25.3111C26.403 24.7466 26.6561 24.2332 26.7348 23.4752C26.7417 23.4221 26.7451 23.3674 26.7502 23.3092C26.7639 23.109 26.7639 22.9055 26.7502 22.7C26.7177 22.2159 26.6099 21.7265 26.4455 21.2612C26.0949 20.2722 25.4806 19.3858 24.7637 18.857C24.5943 18.7339 24.4197 18.6295 24.2419 18.5492L22.5889 17.7964L22.0654 17.5586Z" fill="#FCC368"/>
<path fill-rule="evenodd" clip-rule="evenodd" d="M26.2691 28.6826C26.0979 30.5187 27.2237 32.1612 29.0342 32.5837H35.9416C38.2977 32.5837 38.9993 32.1081 38.9993 29.9419V20.4408C38.9993 19.8762 38.5371 19.4141 37.9727 19.4141H30.7229C26.9928 19.4141 26.9585 20.7436 26.7497 22.701C26.7635 22.9063 26.7635 23.1098 26.7497 23.3101C26.7447 23.3682 26.7413 23.4229 26.7344 23.476C27.3863 26.8365 26.4195 27.0761 26.2691 28.6826V28.6826Z" fill="#FAFAFA"/>
<path fill-rule="evenodd" clip-rule="evenodd" d="M30.7431 28.0146L30.5309 28.6818L30.2434 29.5887C30.1272 29.9583 29.8738 30.1483 29.7113 30.0473C28.7566 29.4483 27.9626 30.7264 29.0697 31.3529C29.3417 31.5051 29.1091 31.9107 29.0732 32.0629C29.0542 32.1482 29.0423 32.2304 29.0354 32.3126C29.0269 32.405 29.0269 32.4957 29.0354 32.5829C29.1569 33.974 31.1571 34.53 32.0965 32.5829C32.1702 32.4307 32.2368 32.2629 32.2967 32.0798L33.3917 28.6818C33.6554 27.8656 33.5938 27.2634 33.3423 26.4575L32.7621 24.5977H30.5566L30.5497 26.1323L30.8081 27.07C30.8765 27.5184 30.8784 27.5869 30.7431 28.0146V28.0146Z" fill="#FFDDA6"/>
<path fill-rule="evenodd" clip-rule="evenodd" d="M32.2388 26.4573C32.4887 27.2632 32.5521 27.8654 32.2884 28.6816L31.4981 31.1352L31.1918 32.0798C31.1335 32.2629 31.0669 32.4305 30.9932 32.5827C30.6938 33.2022 30.2885 33.5682 29.8691 33.7342C30.5638 34.0235 31.5237 33.7632 32.0952 32.5827C32.1687 32.4305 32.2355 32.2627 32.2955 32.0798L32.5812 31.1933L33.3905 28.6818C33.3905 28.68 33.3905 28.6784 33.3923 28.6766C33.3923 28.6766 33.3923 28.675 33.3923 28.6731C33.4145 28.6065 33.4333 28.5413 33.4505 28.4781C33.642 27.7629 33.5702 27.1966 33.3408 26.4608C33.3408 26.4592 33.3408 26.4592 33.3408 26.4573L32.7608 24.5977L32.7402 24.6233C32.7402 24.6249 32.7402 24.6249 32.7386 24.6249C32.7368 24.6283 32.7352 24.6302 32.7334 24.6334C32.6171 24.7805 32.4734 24.9108 32.3212 25.0305C32.1808 25.1383 32.0337 25.2392 31.8881 25.3383L32.2388 26.4573Z" fill="#FCC368"/>
<path fill-rule="evenodd" clip-rule="evenodd" d="M26.7499 22.7009L28.5191 25.1648C28.9691 25.7927 29.7716 26.2973 30.5484 26.1332C30.658 26.1108 30.7674 26.0749 30.8752 26.0236C31.1423 25.8954 31.4554 25.642 31.7035 25.4676C32.0611 25.2143 32.4717 24.9714 32.7404 24.624L32.7608 24.5983C33.2929 23.8918 33.3375 22.8891 32.8001 22.1294L31.4296 20.1857C31.2073 19.8795 30.9693 19.6245 30.723 19.4139C28.7331 17.7305 26.1477 19.0564 26.4454 21.2619C26.6096 21.7273 26.7174 22.2166 26.7499 22.7009V22.7009Z" fill="#0480DF"/>
<path fill-rule="evenodd" clip-rule="evenodd" d="M30.3732 21.0532L31.7437 22.9968C31.985 23.339 32.1083 23.7293 32.1237 24.1209C32.1305 24.2802 32.1168 24.4409 32.0877 24.5983C32.028 24.9098 31.8978 25.2074 31.7046 25.4676C31.7062 25.4658 31.7078 25.4642 31.7114 25.4623C31.9099 25.322 32.1237 25.1852 32.3221 25.0311C32.478 24.9096 32.6217 24.778 32.7396 24.6256C32.7414 24.6256 32.7414 24.6256 32.7414 24.624L32.7618 24.5983C32.873 24.4511 32.9621 24.2886 33.0305 24.1209C33.2871 23.4809 33.2255 22.7297 32.8011 22.1294L31.4306 20.1855C31.2084 19.8792 30.9703 19.6243 30.724 19.4139C29.2748 18.1871 27.5073 18.5584 26.7715 19.7048C27.6167 19.3592 28.7101 19.4739 29.6666 20.283C29.9129 20.492 30.1509 20.7469 30.3732 21.0532V21.0532Z" fill="#0261AA"/>
<path d="M29.5276 15.864H27.3546C27.1698 15.864 27.0032 15.7528 26.9327 15.5818C26.8622 15.4109 26.9018 15.2145 27.0327 15.084L28.3156 13.8075H27.2843C27.0323 13.8075 26.8281 13.6031 26.8281 13.3509C26.8281 13.0989 27.0323 12.8945 27.2843 12.8945H29.4216C29.6063 12.8945 29.7729 13.006 29.8432 13.177C29.9137 13.3477 29.8743 13.5443 29.7432 13.6748L28.4603 14.9513H29.5276C29.7796 14.9513 29.9837 15.1557 29.9837 15.4077C29.9837 15.6599 29.7796 15.864 29.5276 15.864V15.864Z" fill="#672C70"/>
<path d="M34.008 13.7255H31.835C31.6503 13.7255 31.4837 13.614 31.4132 13.4431C31.3427 13.2721 31.3823 13.0757 31.5134 12.9455L32.7954 11.6706H31.7648C31.5128 11.6706 31.3086 11.4664 31.3086 11.2142C31.3086 10.9622 31.5128 10.7578 31.7648 10.7578H33.9021C34.0868 10.7578 34.2534 10.8693 34.3237 11.0403C34.3941 11.2112 34.3546 11.4078 34.2236 11.5381L32.9414 12.8127H34.008C34.26 12.8127 34.4644 13.0171 34.4644 13.2691C34.4644 13.5211 34.26 13.7255 34.008 13.7255V13.7255Z" fill="#672C70"/>
</svg>
