<svg width="12" height="13" viewBox="0 0 12 13" fill="none" xmlns="http://www.w3.org/2000/svg">
<path d="M2.71088 12.3881C2.71088 12.2441 2.69488 12.1801 2.63088 12.1801L2.26288 12.3561C2.26288 12.2761 2.21488 12.2281 2.13488 12.1961L2.00688 12.1801C1.89488 12.1801 1.84688 12.1961 1.68688 12.2921C1.63888 12.1961 1.57488 12.0841 1.52688 11.9881C1.11088 11.1881 0.678879 9.98808 0.486879 9.46008C0.390879 9.18808 0.294879 8.62808 0.182879 7.78008C0.310879 7.86008 0.406879 7.89208 0.454879 7.89208C0.518879 7.89208 0.598879 7.78008 0.662879 7.55608C0.694879 7.60408 0.758879 7.62008 0.838879 7.62008C0.886879 7.62008 0.950879 7.60408 0.982879 7.55608L1.23888 7.17208L1.52688 7.26808H1.54288C1.57488 7.26808 1.62288 7.22008 1.70288 7.17208C1.78288 7.12408 1.84688 7.09208 1.89488 7.09208L1.94288 7.10808C2.19888 7.23608 2.37488 7.46008 2.45488 7.81208C2.64688 8.62808 2.82288 9.02808 3.03088 9.02808C3.20688 9.02808 3.44688 8.82008 3.70288 8.42008C3.95888 8.02008 4.21488 7.47608 4.50288 6.82008C4.51888 6.94808 4.53488 7.01208 4.56688 7.01208C4.66288 7.01208 4.90288 6.45208 5.49488 5.50808C6.37488 4.08408 8.55088 1.34808 9.11088 0.964082C9.52688 0.676082 9.84688 0.404081 10.0709 0.164082C10.0389 0.324081 10.0069 0.436082 10.0069 0.484081C10.0069 0.532082 10.0389 0.548081 10.0709 0.548081L10.5189 0.324081V0.388082C10.5189 0.468081 10.5349 0.516082 10.5829 0.516082C10.6469 0.516082 10.9029 0.260081 10.9349 0.164082L10.9029 0.388082L11.4469 0.0680819L11.3189 0.356082C11.4789 0.244081 11.6069 0.180081 11.6869 0.180081C11.7669 0.180081 11.8149 0.308082 11.8149 0.388082C11.8149 0.516082 11.7029 0.692081 11.5269 0.916081C11.3349 1.17208 10.8549 1.66808 9.41488 3.31608C8.79088 4.02008 6.02288 7.78008 5.49488 8.67608L4.50288 10.3561C4.07088 11.0761 3.79888 11.5401 3.65488 11.7161C3.51088 11.8921 3.33488 12.0681 3.12688 12.2281L2.98288 12.1481L2.85488 12.2281L2.71088 12.3881Z" fill="white"/>
</svg>
