<svg width="48" height="48" viewBox="0 0 48 48" fill="none" xmlns="http://www.w3.org/2000/svg">
<rect width="48" height="48" rx="4" fill="#C9B7CB"/>
<g clip-path="url(#clip0_722_16661)">
<g filter="url(#filter0_f_722_16661)">
<ellipse cx="23.5" cy="37" rx="7.5" ry="1" fill="#541F5C" fill-opacity="0.38"/>
</g>
<path d="M23.3076 14.2021C23.3076 14.2021 23.5867 13.9938 23.825 14.2933C23.825 14.2933 23.5683 14.4921 23.3076 14.2021Z" fill="#195600"/>
<path d="M23.0332 13.6445C23.0332 13.6445 23.3123 13.4363 23.5504 13.7356C23.5504 13.7356 23.2937 13.9344 23.0332 13.6445Z" fill="#195600"/>
<path d="M22.6885 13.5012C22.6885 13.5012 22.767 13.1952 23.1704 13.3193C23.1704 13.3193 23.1033 13.6065 22.6885 13.5012Z" fill="#195600"/>
<path d="M22.3711 13.187C22.3711 13.187 22.4495 12.8811 22.8529 13.0052C22.8529 13.0052 22.7859 13.2924 22.3711 13.187Z" fill="#195600"/>
<path d="M22.0703 12.8969C22.0703 12.8969 22.1487 12.5909 22.5522 12.715C22.5522 12.715 22.4851 13.0022 22.0703 12.8969Z" fill="#195600"/>
<path d="M21.7119 12.6808C21.7119 12.6808 21.7904 12.3748 22.1938 12.499C22.1938 12.499 22.1266 12.7862 21.7119 12.6808Z" fill="#195600"/>
<path d="M21.2705 12.4983C21.2705 12.4983 21.3489 12.1924 21.7524 12.3165C21.7522 12.317 21.6853 12.6042 21.2705 12.4983Z" fill="#195600"/>
<path d="M21.1104 12.0784C21.1104 12.0784 21.4369 11.9258 21.5915 12.2613C21.5915 12.2613 21.2894 12.4086 21.1104 12.0784Z" fill="#195600"/>
<path d="M21.8355 11.8893C21.8355 11.8893 22.1567 12.0496 21.8869 12.3295C21.8869 12.3295 21.5833 12.1842 21.8355 11.8893Z" fill="#195600"/>
<path d="M22.2897 12.109C22.2897 12.109 22.5343 12.3451 22.1729 12.5403C22.1729 12.5403 21.9394 12.3225 22.2897 12.109Z" fill="#195600"/>
<path d="M22.6081 12.325C22.6081 12.325 22.8527 12.5617 22.4913 12.7564C22.4913 12.7566 22.2578 12.5386 22.6081 12.325Z" fill="#195600"/>
<path d="M22.846 12.5379C22.846 12.5379 23.179 12.6801 22.9318 12.9743C22.9318 12.9743 22.6174 12.8461 22.846 12.5379Z" fill="#195600"/>
<path d="M23.3484 12.8914C23.3484 12.8914 23.5929 13.1282 23.2315 13.3229C23.2315 13.3229 22.998 13.105 23.3484 12.8914Z" fill="#195600"/>
<path d="M23.6227 13.407C23.6227 13.407 23.8673 13.6438 23.5059 13.8385C23.5059 13.8385 23.2724 13.6206 23.6227 13.407Z" fill="#195600"/>
<path d="M21.6104 10.3515C21.6104 10.3515 21.9833 10.3281 21.9548 10.6869C21.9548 10.6869 21.6067 10.7141 21.6104 10.3515Z" fill="#195600"/>
<path d="M22.0537 11.3085C22.0537 11.3085 22.3123 11.0962 22.5698 11.3836C22.5698 11.3836 22.3326 11.586 22.0537 11.3085Z" fill="#195600"/>
<path d="M23.8252 13.214C23.8252 13.214 24.1966 13.1762 24.1879 13.5358C24.1879 13.5358 23.8415 13.5769 23.8252 13.214Z" fill="#195600"/>
<path d="M21.6367 10.9803C21.6367 10.9803 21.8179 10.7066 22.1611 10.9233C22.1609 10.9229 21.9971 11.1814 21.6367 10.9803Z" fill="#195600"/>
<path d="M22.2891 11.7381C22.2891 11.7381 22.5269 11.4966 22.8169 11.762C22.8169 11.762 22.5995 11.9912 22.2891 11.7381Z" fill="#195600"/>
<path d="M22.5605 12.0765C22.5605 12.0765 22.8511 11.8794 23.0721 12.1879C23.0721 12.1879 22.8046 12.3763 22.5605 12.0765Z" fill="#195600"/>
<path d="M22.8994 12.5765C22.8994 12.5765 23.1899 12.3794 23.411 12.6879C23.411 12.6878 23.1433 12.8762 22.8994 12.5765Z" fill="#195600"/>
<path d="M23.8842 12.8572C23.8842 12.8572 24.0758 13.126 23.6795 13.2651C23.6795 13.2653 23.4948 13.0167 23.8842 12.8572Z" fill="#195600"/>
<path d="M23.685 12.4334C23.685 12.4334 23.853 12.713 23.4458 12.8279C23.4457 12.8279 23.2828 12.5689 23.685 12.4334Z" fill="#195600"/>
<path d="M23.4255 11.8541C23.4255 11.8541 23.572 12.142 23.1568 12.235C23.1568 12.235 23.014 11.9679 23.4255 11.8541Z" fill="#195600"/>
<path d="M23.0186 11.4217C23.0186 11.4217 23.2632 11.6584 22.9017 11.8531C22.9013 11.8531 22.6678 11.6353 23.0186 11.4217Z" fill="#195600"/>
<path d="M22.7438 10.9803C22.7438 10.9803 22.9884 11.2163 22.627 11.4116C22.627 11.4115 22.3935 11.1939 22.7438 10.9803Z" fill="#195600"/>
<path d="M22.2897 10.448C22.2897 10.448 22.5343 10.6848 22.1729 10.8795C22.1729 10.8795 21.9394 10.6616 22.2897 10.448Z" fill="#195600"/>
<path d="M23.4082 10.4723C23.4082 10.4723 23.6611 10.2418 23.9337 10.5198C23.9337 10.5195 23.7019 10.739 23.4082 10.4723Z" fill="#195600"/>
<path d="M23.5322 10.8956C23.5322 10.8956 23.8541 10.7363 24.0188 11.0685C24.0191 11.0685 23.7213 11.2221 23.5322 10.8956Z" fill="#195600"/>
<path d="M23.6875 11.8856C23.6875 11.8856 24.0094 11.7263 24.174 12.0585C24.174 12.0585 23.8763 12.2121 23.6875 11.8856Z" fill="#195600"/>
<path d="M23.7197 12.3949C23.7197 12.3949 24.0389 12.2375 24.2022 12.5664C24.2022 12.5664 23.907 12.7186 23.7197 12.3949Z" fill="#195600"/>
<path d="M23.8857 12.7324C23.8857 12.7324 24.2539 12.6949 24.2455 13.0516C24.2455 13.0516 23.9019 13.0919 23.8857 12.7324Z" fill="#195600"/>
<path d="M24.2708 10.2C24.2708 10.2 24.3939 10.4954 23.9723 10.565C23.9723 10.565 23.8511 10.2906 24.2708 10.2Z" fill="#195600"/>
<path d="M24.3421 10.6969C24.3421 10.6969 24.4652 10.9923 24.0436 11.062C24.0436 11.062 23.9224 10.7875 24.3421 10.6969Z" fill="#195600"/>
<path d="M24.5256 11.7654C24.5256 11.7654 24.6489 12.0609 24.2272 12.1306C24.2272 12.1306 24.1059 11.856 24.5256 11.7654Z" fill="#195600"/>
<path d="M24.5256 12.2498C24.5256 12.2498 24.6489 12.5452 24.2272 12.6149C24.2272 12.6149 24.1059 12.3404 24.5256 12.2498Z" fill="#195600"/>
<path d="M24.5253 12.8914C24.5253 12.8914 24.6461 13.1848 24.2277 13.2526C24.2277 13.2526 24.1086 12.9799 24.5253 12.8914Z" fill="#195600"/>
<path d="M24.4368 11.199C24.4368 11.199 24.56 11.4945 24.1383 11.5641C24.1383 11.5646 24.0171 11.2896 24.4368 11.199Z" fill="#195600"/>
<path d="M23.6357 11.3651C23.6357 11.3651 23.9581 11.2058 24.122 11.538C24.122 11.538 23.8245 11.6916 23.6357 11.3651Z" fill="#195600"/>
<path d="M23.5664 14.6999C23.5664 14.6999 23.9128 14.5819 24.0173 14.9307C24.0173 14.9307 23.6962 15.046 23.5664 14.6999Z" fill="#195600"/>
<path d="M23.5732 15.1932C23.5732 15.1932 23.8763 15.0098 24.0767 15.3281C24.0767 15.3281 23.7971 15.5038 23.5732 15.1932Z" fill="#195600"/>
<path d="M24.3992 14.5955C24.3992 14.5955 24.4538 14.905 24.0242 14.9072C24.0238 14.9072 23.9666 14.6186 24.3992 14.5955Z" fill="#195600"/>
<path d="M24.3949 14.9852C24.3949 14.9852 24.5181 15.2807 24.0964 15.3503C24.0963 15.3503 23.9751 15.0758 24.3949 14.9852Z" fill="#195600"/>
<path d="M22.6924 17.8074C22.6924 17.8074 23.0356 17.6837 23.1491 18.0301C23.1491 18.0301 22.8308 18.1512 22.6924 17.8074Z" fill="#195600"/>
<path d="M22.7305 17.3505C22.7305 17.3505 23.0737 17.2263 23.1872 17.5731C23.1872 17.5731 22.8689 17.6942 22.7305 17.3505Z" fill="#195600"/>
<path d="M22.7305 16.8736C22.7305 16.8736 23.0737 16.7499 23.1872 17.0963C23.1872 17.0963 22.8689 17.2174 22.7305 16.8736Z" fill="#195600"/>
<path d="M22.6924 16.3621C22.6924 16.3621 23.0356 16.2384 23.1491 16.5848C23.1491 16.5848 22.8308 16.7057 22.6924 16.3621Z" fill="#195600"/>
<path d="M23.5057 16.2322C23.5057 16.2322 23.6253 16.5287 23.2028 16.5947C23.2028 16.5947 23.0844 16.3196 23.5057 16.2322Z" fill="#195600"/>
<path d="M23.5431 16.7352C23.5431 16.7352 23.6626 17.0316 23.2402 17.0977C23.2397 17.0977 23.1217 16.8222 23.5431 16.7352Z" fill="#195600"/>
<path d="M23.5431 17.2225C23.5431 17.2225 23.6626 17.519 23.2402 17.585C23.2397 17.585 23.1217 17.3092 23.5431 17.2225Z" fill="#195600"/>
<path d="M23.5949 17.7754C23.5949 17.7754 23.6161 18.0879 23.1878 18.0576C23.1878 18.0576 23.1617 17.7658 23.5949 17.7754Z" fill="#195600"/>
<path d="M22.9096 15.7547C22.9096 15.7547 23.2729 15.8289 23.1135 16.1629C23.1133 16.1629 22.7721 16.0987 22.9096 15.7547Z" fill="#195600"/>
<path d="M19.383 14.4125C19.383 14.4125 19.0698 14.5836 18.8877 14.2578C18.8877 14.2578 19.177 14.0939 19.383 14.4125Z" fill="#195600"/>
<path d="M19.6296 14.5523C19.6296 14.5523 19.3297 14.3654 19.6322 14.11C19.6324 14.11 19.9164 14.2804 19.6296 14.5523Z" fill="#195600"/>
<path d="M20.0935 14.7097C20.0935 14.7097 19.7935 14.5229 20.0961 14.2674C20.0961 14.2674 20.3804 14.4379 20.0935 14.7097Z" fill="#195600"/>
<path d="M20.4079 14.9302C20.4079 14.9302 20.108 14.7433 20.4106 14.4879C20.41 14.4879 20.6942 14.6583 20.4079 14.9302Z" fill="#195600"/>
<path d="M20.7683 15.2578C20.7683 15.2578 20.4683 15.0708 20.7709 14.8154C20.7705 14.8154 21.0547 14.9859 20.7683 15.2578Z" fill="#195600"/>
<path d="M19.5381 14.9831C19.5381 14.9831 19.5572 14.6706 19.9791 14.7391C19.9791 14.7391 19.9676 15.0316 19.5381 14.9831Z" fill="#195600"/>
<path d="M19.0566 14.7497C19.0566 14.7497 19.0758 14.4372 19.4976 14.5057C19.4976 14.5057 19.4862 14.7982 19.0566 14.7497Z" fill="#195600"/>
<path d="M19.8701 15.1608C19.8701 15.1608 19.8891 14.8483 20.3111 14.9169C20.3111 14.9169 20.2996 15.2094 19.8701 15.1608Z" fill="#195600"/>
<path d="M20.2705 15.363C20.2705 15.363 20.4689 15.0977 20.7976 15.3292C20.7976 15.3295 20.6176 15.5803 20.2705 15.363Z" fill="#195600"/>
<path d="M19.4561 15.8669C19.4561 15.8669 19.6199 15.5859 19.976 15.7874C19.976 15.7874 19.8289 16.0527 19.4561 15.8669Z" fill="#195600"/>
<path d="M19.8701 16.1306C19.8701 16.1306 20.034 15.8495 20.3901 16.0511C20.3901 16.0511 20.2424 16.3164 19.8701 16.1306Z" fill="#195600"/>
<path d="M20.3271 16.3523C20.3271 16.3523 20.491 16.0712 20.8471 16.2728C20.8471 16.2728 20.6993 16.538 20.3271 16.3523Z" fill="#195600"/>
<path d="M20.9893 16.6257C20.9893 16.6257 21.1531 16.3447 21.5092 16.5462C21.5092 16.5462 21.3615 16.8114 20.9893 16.6257Z" fill="#195600"/>
<path d="M20.4587 15.9792C20.4587 15.9792 20.1588 15.7923 20.4613 15.5369C20.4613 15.5369 20.7456 15.7073 20.4587 15.9792Z" fill="#195600"/>
<path d="M20.0935 15.7332C20.0935 15.7332 19.7935 15.5463 20.0961 15.2908C20.0961 15.2908 20.3804 15.4614 20.0935 15.7332Z" fill="#195600"/>
<path d="M19.8915 15.6462C19.8915 15.6462 19.5185 15.6675 19.5497 15.3089C19.5497 15.3084 19.8981 15.2835 19.8915 15.6462Z" fill="#195600"/>
<path d="M20.8015 16.2C20.8015 16.2 20.5015 16.013 20.8041 15.7576C20.8041 15.7577 21.0883 15.928 20.8015 16.2Z" fill="#195600"/>
<path d="M21.3859 16.4725C21.3859 16.4725 21.044 16.3458 21.2714 16.0406C21.2713 16.0406 21.5938 16.1543 21.3859 16.4725Z" fill="#195600"/>
<path d="M20.7191 16.9729C20.7191 16.9729 20.3689 17.0825 20.2764 16.7313C20.2767 16.7313 20.6016 16.6235 20.7191 16.9729Z" fill="#195600"/>
<path d="M20.8402 17.0737C20.8402 17.0737 20.5476 16.8787 20.8599 16.6316C20.8599 16.6319 21.1374 16.8099 20.8402 17.0737Z" fill="#195600"/>
<path d="M21.2425 17.2631C21.2425 17.2631 20.95 17.0682 21.2623 16.8211C21.2623 16.8211 21.5397 16.9992 21.2425 17.2631Z" fill="#195600"/>
<path d="M20.6924 17.5085C20.6924 17.5085 20.7495 17.1992 21.1609 17.3035C21.161 17.3035 21.1139 17.5936 20.6924 17.5085Z" fill="#195600"/>
<path d="M21.2207 17.7839C21.2207 17.7839 21.2778 17.4746 21.6891 17.5789C21.6891 17.5795 21.6419 17.869 21.2207 17.7839Z" fill="#195600"/>
<path d="M21.7188 18.0241C21.7188 18.0241 21.7759 17.7148 22.1872 17.8192C22.187 17.8192 22.14 18.1092 21.7188 18.0241Z" fill="#195600"/>
<path d="M20.2773 17.2162C20.2773 17.2162 20.3471 16.9088 20.7539 17.0251C20.7536 17.025 20.6946 17.3134 20.2773 17.2162Z" fill="#195600"/>
<path d="M21.7122 17.5541C21.7122 17.5541 21.4197 17.3592 21.732 17.1121C21.732 17.1121 22.0095 17.2902 21.7122 17.5541Z" fill="#195600"/>
<path d="M22.1683 17.8063C22.1683 17.8063 21.8758 17.6113 22.188 17.3643C22.188 17.3643 22.4656 17.5423 22.1683 17.8063Z" fill="#195600"/>
<path d="M20.9216 13.8152C20.9216 13.8152 21.294 13.8436 21.1954 14.1936C21.1957 14.1936 20.8469 14.1726 20.9216 13.8152Z" fill="#195600"/>
<path d="M20.8467 14.5167C20.8467 14.5167 21.0324 14.2454 21.3718 14.4664C21.3718 14.4664 21.2033 14.7228 20.8467 14.5167Z" fill="#195600"/>
<path d="M21.5329 14.0516C21.5329 14.0516 21.7775 14.2876 21.4161 14.4829C21.4161 14.4829 21.1826 14.265 21.5329 14.0516Z" fill="#195600"/>
<path d="M21.7614 14.5107C21.7614 14.5107 22.006 14.7475 21.6446 14.9422C21.6446 14.9422 21.4111 14.7243 21.7614 14.5107Z" fill="#195600"/>
<path d="M22.1061 14.9949C22.1061 14.9949 22.2557 15.2817 21.8415 15.3778C21.8415 15.3778 21.6958 15.1118 22.1061 14.9949Z" fill="#195600"/>
<path d="M22.4162 15.7537C22.4162 15.7537 22.5269 16.0526 22.1026 16.1098C22.1026 16.1098 21.9929 15.8318 22.4162 15.7537Z" fill="#195600"/>
<path d="M21.0635 14.9631C21.0635 14.9631 21.2341 14.6846 21.5852 14.892C21.5851 14.8925 21.4313 15.1548 21.0635 14.9631Z" fill="#195600"/>
<path d="M21.3223 15.3875C21.3223 15.3875 21.5844 15.1645 21.8455 15.4504C21.8455 15.4504 21.6048 15.6626 21.3223 15.3875Z" fill="#195600"/>
<path d="M21.5684 15.8188C21.5684 15.8188 21.8806 15.6466 22.0643 15.9718C22.0643 15.9716 21.7759 16.1372 21.5684 15.8188Z" fill="#195600"/>
<path d="M21.209 19.7097C21.209 19.7097 21.4359 19.461 21.7375 19.7172C21.7375 19.7172 21.5305 19.9531 21.209 19.7097Z" fill="#195600"/>
<path d="M21.5127 20.0369C21.5127 20.0369 21.7397 19.7881 22.0413 20.0444C22.0413 20.0444 21.8342 20.2803 21.5127 20.0369Z" fill="#195600"/>
<path d="M21.7764 20.3503C21.7764 20.3503 22.0033 20.1016 22.3049 20.3578C22.3049 20.3578 22.0977 20.5937 21.7764 20.3503Z" fill="#195600"/>
<path d="M21.1484 19.0821C21.1484 19.0821 21.5198 19.0432 21.5125 19.4028C21.5125 19.4028 21.1664 19.4445 21.1484 19.0821Z" fill="#195600"/>
<path d="M21.7397 19.1346C21.7397 19.1346 22.017 19.3406 21.6921 19.5714C21.6921 19.5714 21.4286 19.3828 21.7397 19.1346Z" fill="#195600"/>
<path d="M22.1049 19.6014C22.1049 19.6014 22.3822 19.8074 22.0573 20.0383C22.0576 20.0383 21.7937 19.8496 22.1049 19.6014Z" fill="#195600"/>
<path d="M22.4992 19.9705C22.4992 19.9705 22.7334 20.2111 22.3681 20.3953C22.3684 20.3953 22.1449 20.1738 22.4992 19.9705Z" fill="#195600"/>
<path d="M22.8572 20.3572C22.8572 20.3572 23.0102 20.6401 22.6009 20.7394C22.6009 20.7399 22.4522 20.4777 22.8572 20.3572Z" fill="#195600"/>
<path d="M20.7227 20.8782C20.7227 20.8782 20.7707 20.5678 21.1849 20.6637C21.1849 20.6637 21.1463 20.9546 20.7227 20.8782Z" fill="#195600"/>
<path d="M21.6846 21.3488C21.6846 21.3488 21.7326 21.0385 22.1469 21.1344C22.1469 21.1344 22.1082 21.4252 21.6846 21.3488Z" fill="#195600"/>
<path d="M20.5381 20.3542C20.5381 20.3542 20.8791 20.2257 20.9987 20.5712C20.9984 20.5712 20.6826 20.6962 20.5381 20.3542Z" fill="#195600"/>
<path d="M21.4097 20.3504C21.4097 20.3504 21.687 20.5564 21.362 20.7872C21.362 20.7872 21.0984 20.5986 21.4097 20.3504Z" fill="#195600"/>
<path d="M21.8706 20.532C21.8706 20.532 22.1479 20.7381 21.823 20.969C21.823 20.969 21.5594 20.7802 21.8706 20.532Z" fill="#195600"/>
<path d="M22.2982 20.7674C22.2982 20.7674 22.5756 20.9734 22.2507 21.2043C22.2507 21.2043 21.9871 21.0156 22.2982 20.7674Z" fill="#195600"/>
<path d="M21.2412 21.1399C21.2412 21.1399 21.2893 20.8296 21.7035 20.9254C21.7035 20.9254 21.6649 21.2163 21.2412 21.1399Z" fill="#195600"/>
<path d="M25.3867 14.3226C25.3867 14.3226 25.5922 14.0611 25.9146 14.2989C25.9146 14.2989 25.7276 14.5464 25.3867 14.3226Z" fill="#195600"/>
<path d="M25.75 13.8538C25.75 13.8538 25.9555 13.5923 26.2778 13.8302C26.2773 13.8302 26.0905 14.0776 25.75 13.8538Z" fill="#195600"/>
<path d="M26.0801 13.4448C26.0801 13.4448 26.2856 13.1833 26.6079 13.4212C26.6079 13.4212 26.4211 13.6686 26.0801 13.4448Z" fill="#195600"/>
<path d="M26.3447 13.1495C26.3447 13.1495 26.5502 12.888 26.8726 13.1259C26.8726 13.1256 26.6859 13.373 26.3447 13.1495Z" fill="#195600"/>
<path d="M25.6028 13.3328C25.6028 13.3328 25.9633 13.4162 25.7915 13.7459C25.7915 13.7462 25.4528 13.6732 25.6028 13.3328Z" fill="#195600"/>
<path d="M25.9152 12.9285C25.9152 12.9285 26.2757 13.0119 26.104 13.3416C26.104 13.3414 25.7654 13.2688 25.9152 12.9285Z" fill="#195600"/>
<path d="M26.2453 12.5496C26.2453 12.5496 26.6058 12.633 26.4342 12.9628C26.4342 12.9628 26.0954 12.89 26.2453 12.5496Z" fill="#195600"/>
<path d="M27.0202 12.2957C27.0202 12.2957 27.1424 12.5888 26.7241 12.6578C26.7241 12.6578 26.6039 12.3856 27.0202 12.2957Z" fill="#195600"/>
<path d="M25.4069 11.4324C25.4069 11.4324 25.77 11.5072 25.6098 11.8409C25.6098 11.8409 25.2689 11.7762 25.4069 11.4324Z" fill="#195600"/>
<path d="M25.624 11.9284C25.624 11.9284 25.7458 11.6325 26.1285 11.7962C26.1285 11.7962 26.0208 12.0747 25.624 11.9284Z" fill="#195600"/>
<path d="M25.4697 12.238C25.4697 12.238 25.5914 11.9421 25.9741 12.1058C25.9741 12.1058 25.8664 12.3841 25.4697 12.238Z" fill="#195600"/>
<path d="M25.333 12.6502C25.333 12.6502 25.4547 12.3543 25.8374 12.5178C25.837 12.5178 25.7296 12.7963 25.333 12.6502Z" fill="#195600"/>
<path d="M25.1504 13.1272C25.1504 13.1272 25.215 12.819 25.6237 12.9303C25.6237 12.9304 25.5695 13.2195 25.1504 13.1272Z" fill="#195600"/>
<path d="M24.9932 13.5564C24.9932 13.5564 25.1149 13.2605 25.4975 13.4242C25.4975 13.4242 25.3896 13.7025 24.9932 13.5564Z" fill="#195600"/>
<path d="M24.8419 14.1954C24.8419 14.1954 24.7473 13.8927 25.1742 13.8516C25.1742 13.8516 25.269 14.1333 24.8419 14.1954Z" fill="#195600"/>
<path d="M25.1036 11.9891C25.1036 11.9891 25.4775 11.9911 25.4145 12.3468C25.4145 12.3468 25.0648 12.3509 25.1036 11.9891Z" fill="#195600"/>
<path d="M24.8564 12.48C24.8564 12.48 25.2236 12.4209 25.2448 12.78C25.2448 12.78 24.9025 12.8406 24.8564 12.48Z" fill="#195600"/>
<path d="M24.8767 12.8885C24.8767 12.8885 25.2398 12.9632 25.0796 13.297C25.0796 13.297 24.7385 13.2322 24.8767 12.8885Z" fill="#195600"/>
<path d="M24.6245 13.3494C24.6245 13.3494 24.9985 13.3426 24.9473 13.6997C24.947 13.6997 24.5976 13.7117 24.6245 13.3494Z" fill="#195600"/>
<path d="M24.5015 13.8484C24.5015 13.8484 24.8753 13.8417 24.8242 14.1988C24.8242 14.1988 24.4748 14.2105 24.5015 13.8484Z" fill="#195600"/>
<path d="M25.9017 11.1687C25.9017 11.1687 26.1351 11.41 25.7693 11.5932C25.7693 11.5932 25.5462 11.371 25.9017 11.1687Z" fill="#195600"/>
<path d="M24.4263 14.369C24.4263 14.369 24.8001 14.3621 24.749 14.7192C24.749 14.7192 24.3995 14.7309 24.4263 14.369Z" fill="#195600"/>
<path d="M26.495 15.3848C26.495 15.3848 26.3145 15.1109 25.9707 15.327C25.971 15.327 26.1342 15.5858 26.495 15.3848Z" fill="#195600"/>
<path d="M26.1366 15.6719C26.1366 15.6719 25.9561 15.398 25.6123 15.6141C25.6126 15.6141 25.7759 15.8729 26.1366 15.6719Z" fill="#195600"/>
<path d="M25.8193 15.9493C25.8193 15.9493 25.6387 15.6753 25.2949 15.8915C25.2952 15.891 25.4586 16.1498 25.8193 15.9493Z" fill="#195600"/>
<path d="M26.6647 14.7712C26.6647 14.7712 26.3042 14.687 26.248 15.0434C26.248 15.0434 26.5831 15.1274 26.6647 14.7712Z" fill="#195600"/>
<path d="M26.0712 14.751C26.0712 14.751 25.7605 14.9205 26.0413 15.1894C26.0413 15.1889 26.3352 15.0349 26.0712 14.751Z" fill="#195600"/>
<path d="M25.6279 15.1676C25.6279 15.1676 25.3172 15.3372 25.5979 15.606C25.5979 15.6055 25.892 15.4515 25.6279 15.1676Z" fill="#195600"/>
<path d="M25.1726 15.484C25.1726 15.484 24.8984 15.693 25.2272 15.9203C25.227 15.9203 25.4876 15.7287 25.1726 15.484Z" fill="#195600"/>
<path d="M24.7503 15.8221C24.7503 15.8221 24.5495 16.083 24.9366 16.2322C24.9366 16.2322 25.1298 15.9911 24.7503 15.8221Z" fill="#195600"/>
<path d="M26.7701 16.601C26.7701 16.601 26.7772 16.2882 26.3506 16.3319C26.3505 16.3312 26.3375 16.6235 26.7701 16.601Z" fill="#195600"/>
<path d="M25.7349 16.9479C25.7349 16.9479 25.742 16.6351 25.3155 16.6788C25.3155 16.6788 25.3024 16.9712 25.7349 16.9479Z" fill="#195600"/>
<path d="M27.0446 16.1051C27.0446 16.1051 26.73 15.936 26.5508 16.2625C26.5508 16.2634 26.8418 16.4255 27.0446 16.1051Z" fill="#195600"/>
<path d="M26.1825 15.9939C26.1825 15.9939 25.8719 16.1635 26.1526 16.4324C26.1526 16.4316 26.4465 16.2778 26.1825 15.9939Z" fill="#195600"/>
<path d="M25.6952 16.117C25.6952 16.117 25.3846 16.2865 25.6653 16.5554C25.6654 16.5547 25.9593 16.4006 25.6952 16.117Z" fill="#195600"/>
<path d="M25.2304 16.2977C25.2304 16.2977 24.9198 16.4672 25.2004 16.7361C25.2004 16.7353 25.4944 16.5812 25.2304 16.2977Z" fill="#195600"/>
<path d="M26.2105 16.7966C26.2105 16.7966 26.2176 16.4838 25.7911 16.5274C25.7911 16.5274 25.7779 16.8199 26.2105 16.7966Z" fill="#195600"/>
<path d="M25.7161 18.4041C25.7161 18.4041 25.4892 18.1553 25.1875 18.4116C25.1875 18.4116 25.3946 18.6475 25.7161 18.4041Z" fill="#195600"/>
<path d="M25.4113 18.7322C25.4113 18.7322 25.1844 18.4834 24.8828 18.7396C24.8828 18.7396 25.0899 18.9755 25.4113 18.7322Z" fill="#195600"/>
<path d="M25.1476 19.0437C25.1476 19.0437 24.9207 18.7949 24.6191 19.0512C24.6191 19.0509 24.8263 19.287 25.1476 19.0437Z" fill="#195600"/>
<path d="M25.7763 17.7756C25.7763 17.7756 25.4049 17.7367 25.4122 18.0964C25.4122 18.0959 25.7584 18.1381 25.7763 17.7756Z" fill="#195600"/>
<path d="M25.1855 17.8289C25.1855 17.8289 24.9081 18.035 25.2331 18.2658C25.2331 18.2658 25.4966 18.0771 25.1855 17.8289Z" fill="#195600"/>
<path d="M24.8193 18.2957C24.8193 18.2957 24.5419 18.5018 24.8669 18.7327C24.8669 18.7327 25.1305 18.5439 24.8193 18.2957Z" fill="#195600"/>
<path d="M24.4255 18.6648C24.4255 18.6648 24.1913 18.9054 24.5566 19.0897C24.5563 19.0897 24.7802 18.8681 24.4255 18.6648Z" fill="#195600"/>
<path d="M24.068 19.0516C24.068 19.0516 23.9151 19.3344 24.3244 19.4338C24.3244 19.4338 24.4731 19.1715 24.068 19.0516Z" fill="#195600"/>
<path d="M26.2377 19.5921C26.2377 19.5921 26.1896 19.2817 25.7754 19.3776C25.7754 19.3775 25.814 19.6685 26.2377 19.5921Z" fill="#195600"/>
<path d="M25.2396 20.0432C25.2396 20.0432 25.1916 19.7329 24.7773 19.8287C24.777 19.8287 24.816 20.1194 25.2396 20.0432Z" fill="#195600"/>
<path d="M26.3863 19.0486C26.3863 19.0486 26.0454 18.9201 25.9258 19.2655C25.9258 19.2654 26.2419 19.3905 26.3863 19.0486Z" fill="#195600"/>
<path d="M25.5146 19.0457C25.5146 19.0457 25.2372 19.2518 25.5622 19.4825C25.5622 19.4825 25.826 19.2939 25.5146 19.0457Z" fill="#195600"/>
<path d="M25.0536 19.2273C25.0536 19.2273 24.7763 19.4334 25.1013 19.6643C25.1013 19.6643 25.3649 19.4756 25.0536 19.2273Z" fill="#195600"/>
<path d="M24.6259 19.4619C24.6259 19.4619 24.3486 19.668 24.6735 19.8988C24.6735 19.8988 24.9371 19.7101 24.6259 19.4619Z" fill="#195600"/>
<path d="M25.683 19.8342C25.683 19.8342 25.6349 19.5239 25.2207 19.6198C25.2207 19.6198 25.2593 19.9107 25.683 19.8342Z" fill="#195600"/>
<path d="M25.7814 21.0916C25.7814 21.0916 25.5545 20.8428 25.2529 21.0991C25.2529 21.0991 25.46 21.3348 25.7814 21.0916Z" fill="#195600"/>
<path d="M25.4767 21.4195C25.4767 21.4195 25.2498 21.1708 24.9482 21.4269C24.9482 21.4269 25.1552 21.6628 25.4767 21.4195Z" fill="#195600"/>
<path d="M25.2131 21.7322C25.2131 21.7322 24.9862 21.4834 24.6846 21.7396C24.6846 21.7396 24.8916 21.9755 25.2131 21.7322Z" fill="#195600"/>
<path d="M25.8408 20.4629C25.8408 20.4629 25.4694 20.4241 25.4767 20.7836C25.4767 20.7836 25.8228 20.8254 25.8408 20.4629Z" fill="#195600"/>
<path d="M25.2646 20.5672C25.2646 20.5672 24.9872 20.7732 25.3122 21.0041C25.3123 21.0041 25.5757 20.8154 25.2646 20.5672Z" fill="#195600"/>
<path d="M24.8847 20.9832C24.8847 20.9832 24.6074 21.1893 24.9322 21.42C24.9322 21.42 25.1958 21.2314 24.8847 20.9832Z" fill="#195600"/>
<path d="M24.491 21.3523C24.491 21.3523 24.2567 21.593 24.6221 21.7773C24.6216 21.7773 24.8457 21.5556 24.491 21.3523Z" fill="#195600"/>
<path d="M24.1334 21.7391C24.1334 21.7391 23.9805 22.0219 24.3899 22.1213C24.3899 22.1213 24.5385 21.859 24.1334 21.7391Z" fill="#195600"/>
<path d="M26.3062 22.2589C26.3062 22.2589 26.258 21.9487 25.8438 22.0446C25.8438 22.0446 25.8824 22.3354 26.3062 22.2589Z" fill="#195600"/>
<path d="M25.3051 22.7307C25.3051 22.7307 25.257 22.4204 24.8428 22.5162C24.8426 22.5162 24.8813 22.8071 25.3051 22.7307Z" fill="#195600"/>
<path d="M26.5358 21.7117C26.5358 21.7117 26.1949 21.5832 26.0752 21.9286C26.0752 21.9286 26.3914 22.0536 26.5358 21.7117Z" fill="#195600"/>
<path d="M25.58 21.7332C25.58 21.7332 25.3027 21.9391 25.6276 22.17C25.6276 22.17 25.8916 21.9814 25.58 21.7332Z" fill="#195600"/>
<path d="M25.1191 21.9141C25.1191 21.9141 24.8417 22.1201 25.1666 22.3509C25.1666 22.3509 25.4302 22.1623 25.1191 21.9141Z" fill="#195600"/>
<path d="M24.6913 22.1492C24.6913 22.1492 24.414 22.3553 24.739 22.5861C24.739 22.5861 25.0024 22.3974 24.6913 22.1492Z" fill="#195600"/>
<path d="M25.7475 22.5217C25.7475 22.5217 25.6994 22.2114 25.2852 22.3073C25.2852 22.3073 25.3237 22.5981 25.7475 22.5217Z" fill="#195600"/>
<path d="M26.364 14.9696C25.6868 15.5778 25.013 16.1904 24.3885 16.8374C24.2983 16.9314 24.1767 17.0691 24.0898 17.1672C24.0172 17.2502 23.9445 17.3327 23.8792 17.4196C23.8576 17.4478 23.839 17.4783 23.8237 17.5106L23.8154 17.5096C23.8166 17.4732 23.8249 17.4373 23.8398 17.4042C23.9121 17.2385 24.0394 17.0944 24.1668 16.9562C24.4239 16.6829 24.6975 16.4211 24.9774 16.1642C25.4258 15.7548 25.8861 15.355 26.358 14.9646L26.364 14.9696Z" fill="#62301A"/>
<path d="M26.7636 16.215C26.3459 16.3734 25.9245 16.5244 25.4994 16.6682C25.1531 16.7842 24.8053 16.9006 24.4457 16.986C24.3891 16.9972 24.3328 17.0093 24.2749 17.016C24.2437 17.0193 24.2122 17.0148 24.1831 17.003L24.1816 16.9953C24.1931 16.9852 24.2058 16.9768 24.2194 16.9702C24.2425 16.9564 24.3116 16.9409 24.3396 16.9333C24.7175 16.8346 25.101 16.7227 25.4733 16.61C25.904 16.48 26.3323 16.3439 26.7605 16.2078L26.7641 16.215H26.7636Z" fill="#62301A"/>
<path d="M25.5134 18.0079C24.8965 18.749 24.2955 19.5108 23.7453 20.2886C23.6615 20.4082 23.5782 20.5288 23.5079 20.6543C23.4776 20.7089 23.4487 20.7649 23.4337 20.8239C23.4316 20.8323 23.4309 20.8407 23.4293 20.8493H23.421C23.42 20.8135 23.4251 20.7778 23.4359 20.7437C23.4665 20.641 23.5163 20.5428 23.5689 20.4471C23.6392 20.3196 23.7192 20.1963 23.8016 20.0742C23.884 19.9521 23.9732 19.8338 24.0638 19.7164C24.3394 19.3662 24.6228 19.0205 24.9142 18.6794C25.1091 18.4527 25.3052 18.2266 25.5063 18.0037L25.513 18.0079H25.5134Z" fill="#62301A"/>
<path d="M26.1285 19.1921C25.4444 19.5518 24.7605 19.915 24.0335 20.2116C23.9334 20.2517 23.8307 20.2846 23.7262 20.3102C23.7194 20.3127 23.7113 20.3123 23.6963 20.2922L23.6936 20.2848C23.6922 20.2607 23.6977 20.2566 23.7045 20.2552L23.7238 20.2487C23.9159 20.1769 24.1139 20.0927 24.3008 20.0126C24.7042 19.8363 25.1221 19.6513 25.5186 19.4664C25.7209 19.374 25.922 19.2797 26.1235 19.1853L26.1284 19.1921H26.1285Z" fill="#62301A"/>
<path d="M25.5812 20.6969C25.2072 21.159 24.8406 21.6252 24.4815 22.0957C24.3021 22.3305 24.1265 22.5678 23.9616 22.8084C23.8794 22.9292 23.8196 23.0596 23.7352 23.1774C23.6738 23.2667 23.6089 23.3535 23.5495 23.4434C23.5294 23.4729 23.512 23.5042 23.4977 23.5371H23.4843C23.4763 23.5099 23.4732 23.4815 23.4752 23.4532C23.4838 23.3354 23.5318 23.2211 23.587 23.1146C23.6536 22.9833 23.7585 22.8709 23.8455 22.751C23.9326 22.6312 24.0226 22.5129 24.1139 22.3957C24.5227 21.8684 24.966 21.3584 25.418 20.8566L25.5709 20.6902L25.5819 20.6969H25.5812Z" fill="#62301A"/>
<path d="M26.1939 21.88C25.5134 22.2456 24.817 22.5887 24.1045 22.9092C24.0127 22.9506 23.9177 22.9841 23.8205 23.0094C23.8129 23.0124 23.8046 23.0127 23.7969 23.0103C23.7911 23.0081 23.7858 23.0049 23.7813 23.0007C23.7716 22.9936 23.7641 22.9839 23.7594 22.9727C23.7576 22.9585 23.7597 22.944 23.7657 22.9309C23.7697 22.9232 23.7766 22.9227 23.7829 22.9203C23.7955 22.9164 23.8084 22.9109 23.821 22.9064C24.0023 22.8368 24.1882 22.7752 24.3672 22.7C24.7773 22.5247 25.1816 22.3403 25.5849 22.1539C25.7873 22.0615 25.9884 21.9672 26.19 21.8728L26.1947 21.8796L26.1939 21.88Z" fill="#62301A"/>
<path d="M19.332 14.3475C20.4266 14.8802 21.3171 15.6915 21.9254 16.6174C22.2322 17.0811 22.4198 17.5894 22.6743 18.0731C22.8522 18.4222 23.0473 18.7617 23.2588 19.0903C23.305 19.1596 23.3534 19.2309 23.4057 19.2969L23.4373 19.3359C23.4489 19.3476 23.4594 19.3604 23.4686 19.3741C23.4855 19.3998 23.497 19.4288 23.5023 19.4592C23.5034 19.4648 23.5042 19.4704 23.5046 19.4761L23.4961 19.4855C23.394 19.4939 23.3365 19.4306 23.2827 19.37C23.2347 19.3162 23.1897 19.2597 23.1479 19.2007C23.0665 19.0873 22.9913 18.9694 22.9225 18.8476C22.6553 18.3667 22.4207 17.8765 22.1995 17.3802C21.7248 16.2691 20.8438 15.2849 19.7157 14.5785C19.5894 14.4998 19.4603 14.4246 19.3252 14.3579L19.332 14.3475Z" fill="#62301A"/>
<path d="M19.7011 15.5928C20.0592 15.7876 20.4188 15.9809 20.7836 16.1661C21.0567 16.304 21.3271 16.4491 21.622 16.5502C21.6933 16.5747 21.7627 16.6014 21.8342 16.6214C21.8707 16.6285 21.8737 16.6393 21.8983 16.6719L21.8996 16.6789C21.8805 16.7181 21.8439 16.7238 21.8054 16.7147C21.6156 16.6781 21.4584 16.5769 21.2933 16.4981C20.9236 16.3161 20.5684 16.1159 20.2169 15.9117C20.0421 15.8084 19.8679 15.7049 19.6963 15.5981L19.7011 15.5924V15.5928Z" fill="#62301A"/>
<path d="M20.6815 16.9394C21.1225 17.2541 21.6172 17.5095 22.1107 17.7612C22.2349 17.8234 22.3718 17.8679 22.4943 17.9329C22.5147 17.9441 22.5348 17.9554 22.5548 17.9666C22.5631 17.9709 22.5703 17.9773 22.5757 17.9851C22.581 17.993 22.5844 18.0021 22.5855 18.0116C22.5868 18.0214 22.5868 18.0313 22.5855 18.041L22.5811 18.047C22.5712 18.0527 22.5608 18.0573 22.5501 18.0608C22.5298 18.0684 22.5075 18.0678 22.4877 18.0591C22.4659 18.0497 22.445 18.04 22.424 18.0298C22.34 17.9892 22.263 17.9399 22.1852 17.8907C21.9894 17.7716 21.781 17.6683 21.5822 17.5519C21.4234 17.4592 21.2664 17.3638 21.1136 17.264C20.9623 17.1656 20.8161 17.0589 20.6758 16.9444L20.6815 16.9393V16.9394Z" fill="#62301A"/>
<path d="M21.0144 13.9402C21.5434 14.67 22.4096 16.139 22.1607 16.9904L22.1521 17.016L22.1499 17.0223C22.1495 17.0236 22.1489 17.0248 22.1481 17.0258C22.1472 17.0268 22.1462 17.0276 22.145 17.0282C22.1327 17.0328 22.1196 17.0345 22.1066 17.033L22.0986 17.0311C22.0868 17.0271 22.0762 17.0202 22.0676 17.0111C22.0644 17.0073 22.0676 17.0022 22.0676 16.9984C22.0719 16.9841 22.081 16.9404 22.0838 16.925C22.1721 16.4191 22.0087 15.9121 21.8145 15.4358C21.599 14.9204 21.322 14.4223 21.0068 13.9438L21.014 13.9402H21.0144Z" fill="#62301A"/>
<path d="M23.1011 16.0181C23.2104 16.6622 23.367 17.9475 23.0664 18.5336C23.0351 18.5926 22.9929 18.6448 22.9422 18.6873L22.8574 18.6086C22.9004 18.5768 22.9371 18.5369 22.9657 18.4911C23.0253 18.3968 23.0618 18.2904 23.089 18.1853C23.1307 18.023 23.1503 17.8567 23.161 17.6907C23.1807 17.3565 23.1736 17.0216 23.1524 16.6872C23.1391 16.4639 23.1193 16.2409 23.0928 16.0183L23.1011 16.0174V16.0181Z" fill="#62301A"/>
<path d="M21.4179 19.3105C21.9675 19.9259 22.5016 20.552 22.9947 21.2003C23.0826 21.3196 23.1656 21.4412 23.2438 21.5652C23.3395 21.7212 23.4359 21.88 23.4886 22.0505C23.4995 22.0846 23.5045 22.1203 23.5035 22.1562H23.4952C23.4936 22.1475 23.4929 22.1391 23.4908 22.1306C23.4842 22.1052 23.4755 22.0804 23.4649 22.0564C23.4212 21.9592 23.3624 21.8674 23.3029 21.7762C23.2224 21.6547 23.1375 21.5351 23.0506 21.4165C22.7106 20.9443 22.3453 20.4609 21.9755 20.0061C21.79 19.7741 21.6019 19.5436 21.4111 19.3145L21.4179 19.3103V19.3105Z" fill="#62301A"/>
<path d="M20.8006 20.491C21.3445 20.7452 21.8907 20.9963 22.4392 21.2442C22.6555 21.3411 22.8834 21.4387 23.1055 21.5233C23.2114 21.5627 23.3349 21.6082 23.4447 21.6339L23.4054 21.7414C23.3144 21.7145 23.2262 21.6771 23.1412 21.6425C22.5584 21.3901 21.9919 21.1133 21.4312 20.8287C21.2188 20.7194 21.0062 20.6102 20.7959 20.498L20.8007 20.4914L20.8006 20.491Z" fill="#62301A"/>
<path d="M21.4163 12.1932C22.351 12.442 23.1134 13.0475 23.5751 13.7618C23.6058 13.812 23.674 13.9184 23.699 13.9681C23.7179 14.0034 23.7561 14.0732 23.7755 14.1084C23.8082 14.1782 23.8449 14.2537 23.8763 14.3234C23.8953 14.3756 23.9448 14.4921 23.9617 14.5431C23.9771 14.5904 24.0163 14.7175 24.0316 14.7665L24.0679 14.9172C24.073 14.9417 24.0897 15.0063 24.093 15.0305C24.1101 15.1343 24.1367 15.2692 24.1439 15.3732C24.1496 15.4368 24.1572 15.5006 24.1602 15.5643C24.1645 15.6976 24.1673 15.851 24.159 15.9848C24.1575 16.0372 24.1518 16.0884 24.1224 16.1371H24.1054C24.0748 16.0886 24.0671 16.0385 24.064 15.9861C24.0589 15.895 24.0458 15.7744 24.0336 15.6858C24.0117 15.4901 23.9768 15.2858 23.9364 15.0918C23.934 15.0787 23.9277 15.0489 23.9254 15.0364C23.9229 15.0263 23.9047 14.9577 23.9016 14.9451L23.8649 14.799L23.8206 14.6544C23.7981 14.5714 23.7513 14.4501 23.7223 14.3675C23.6951 14.2992 23.6627 14.2244 23.6343 14.1561C23.6175 14.1223 23.5834 14.0523 23.5665 14.018C23.5446 13.9684 23.4819 13.8633 23.4549 13.8145C23.0275 13.1041 22.3107 12.4902 21.4121 12.207L21.4167 12.1933L21.4163 12.1932Z" fill="#62301A"/>
<path d="M21.8984 10.6023C21.9024 10.6031 21.9062 10.6048 21.9094 10.6073C21.944 10.6357 21.9768 10.6663 22.0077 10.699C22.106 10.8002 22.1994 10.9052 22.2906 11.0111C22.9945 11.843 23.8492 13.061 23.9215 14.0913C23.9215 14.1795 23.9377 14.2723 23.8887 14.3542H23.8803C23.8437 14.2714 23.8577 14.1819 23.8446 14.0957C23.726 13.039 22.9656 11.8995 22.2698 11.0239C22.2115 10.9521 22.1521 10.8808 22.0909 10.8103C22.0308 10.7429 21.9737 10.6736 21.904 10.6132C21.9022 10.6117 21.8983 10.6098 21.8987 10.6098V10.6028L21.8984 10.6023Z" fill="#62301A"/>
<path d="M23.8749 10.2393C24.0987 11.1897 24.5206 13.297 24.0789 14.1601C24.0709 14.1739 24.0596 14.1928 24.052 14.2059C24.0186 14.2552 23.9878 14.3102 23.9278 14.3408C23.9151 14.3473 23.9017 14.3524 23.888 14.3559L23.8809 14.3504C23.8981 14.2785 23.9441 14.2365 23.975 14.1746C24.0235 14.0782 24.0607 13.9764 24.0861 13.8711C24.1713 13.5338 24.1798 13.1837 24.177 12.8388C24.1695 12.3166 24.1151 11.7955 24.0411 11.2767C23.9925 10.9304 23.9338 10.585 23.8652 10.2408L23.8749 10.2394V10.2393Z" fill="#62301A"/>
<path d="M25.7913 11.5429C25.3777 12.4059 25.0229 13.2966 24.8418 14.2153C24.8069 14.4055 24.7839 14.5977 24.773 14.7908C24.7722 14.806 24.7687 14.8616 24.7675 14.8772C24.7668 14.9046 24.7663 14.9364 24.7653 14.9637C24.7614 15.0232 24.7594 15.0795 24.7392 15.1387L24.7308 15.1394C24.7132 15.1027 24.7005 15.0638 24.6929 15.0237C24.6763 14.907 24.6808 14.7877 24.6892 14.6703C24.7329 14.2022 24.8582 13.7425 25.0121 13.2922C25.1704 12.8402 25.3548 12.3984 25.5644 11.9692C25.6343 11.8249 25.7064 11.6815 25.7836 11.5398L25.7913 11.5427V11.5429Z" fill="#62301A"/>
<path d="M26.803 12.555C26.2606 13.1899 25.7374 13.8454 25.2541 14.5131C24.8827 15.0302 24.5203 15.5642 24.2209 16.1132L24.1064 16.0727C24.5682 15.143 25.2494 14.3029 25.9424 13.4856C26.0893 13.3158 26.256 13.1271 26.4078 12.9604C26.5334 12.8213 26.6613 12.6838 26.7916 12.5479L26.8025 12.555H26.803Z" fill="#62301A"/>
<path d="M24.2267 15.9235C24.2466 16.0164 24.2232 16.1026 24.2018 16.1917L24.1412 16.453C24.0557 16.8197 23.9494 17.2696 23.8696 17.6319C23.8054 17.9371 23.7511 18.2459 23.7023 18.5527C23.6757 18.7277 23.6509 18.9028 23.6373 19.0787C23.5664 20.2289 23.6944 21.3883 23.6482 22.54C23.6231 22.8955 23.5545 23.2573 23.6694 23.6079C23.6977 23.6968 23.7349 23.7859 23.7609 23.8748C23.7947 23.9824 23.8071 24.0958 23.7973 24.2084C23.7833 24.3148 23.6297 24.3737 23.5155 24.4085H23.4838C23.4261 24.393 23.3704 24.3706 23.3178 24.3419C23.2537 24.306 23.2092 24.2653 23.202 24.2084C23.2003 24.1852 23.1987 24.1635 23.1986 24.1417C23.1894 23.8682 23.3715 23.6124 23.3854 23.341C23.4097 23.0736 23.37 22.8068 23.3485 22.5403C23.3186 21.74 23.3594 20.9387 23.3693 20.1383C23.3772 19.7805 23.3873 19.4213 23.4332 19.0642C23.4941 18.6196 23.5964 18.1795 23.7096 17.7425C23.821 17.3081 23.8993 16.8657 24.0086 16.4311C24.0239 16.3704 24.0607 16.2314 24.0787 16.1699C24.1022 16.0829 24.1266 15.9956 24.1956 15.9178L24.2264 15.924L24.2267 15.9235Z" fill="#62301A"/>
<path d="M17 20.9998V25.9508H30.1562V21.1751C30.1562 21.1751 28.4106 20.9121 28.0698 23.2343H19.2142C19.2142 23.2343 19.0013 21.2626 17 20.9998Z" fill="#672C70"/>
<path d="M18.9517 33.5924L17 34.6699H30.156L28.5807 33.7059L18.9517 33.5924Z" fill="#541F5C"/>
<path d="M30.156 34.6699H17V37.3426H30.156V34.6699Z" fill="#672C70"/>
<path d="M28.7376 25.2068H18.5752V33.7945H28.7376V25.2068Z" fill="#672C70"/>
<path d="M17.042 25.9158L18.5534 26.8046H28.6707L30.2437 25.9158H17.042Z" fill="#541F5C"/>
<path d="M18.2139 21.5662C18.2139 21.5662 19.8486 21.5344 20.0029 23.2803H18.6765L18.2139 21.5662Z" fill="#541F5C"/>
<path d="M28.9932 21.5662C28.9932 21.5662 27.3583 21.5344 27.2041 23.2803H28.5305L28.9932 21.5662Z" fill="#541F5C"/>
<path d="M26.0051 32.9523H21.333V28.4989C22.7767 27.2553 24.3341 27.2553 26.0051 28.4989V32.9523Z" fill="#541F5C"/>
<path d="M25.2443 31.3393C25.2443 31.3654 25.2438 31.3914 25.2426 31.4174C25.2357 31.5779 25.2064 31.7367 25.1558 31.8887C25.0792 32.1198 24.9539 32.3307 24.789 32.5062C24.6456 32.6603 24.4734 32.7829 24.2828 32.8668C24.0922 32.9506 23.887 32.994 23.6797 32.9942C23.2209 32.9942 22.8093 32.786 22.5231 32.4538C22.2922 32.1849 22.1513 31.8467 22.1214 31.4892C22.118 31.4483 22.116 31.4069 22.1152 31.3655C22.1152 31.3569 22.1152 31.3482 22.1152 31.3396C22.1152 31.2894 22.1174 31.2401 22.1217 31.1912C22.1277 31.1812 22.1344 31.1718 22.1418 31.1628C22.1442 31.1598 22.1465 31.1569 22.1492 31.154C22.1804 31.1196 22.2162 31.09 22.2556 31.0662L22.269 31.0578C22.2984 31.0402 22.3287 31.0243 22.3598 31.0101C22.3643 31.0078 22.369 31.0057 22.3737 31.0037C22.3908 30.9959 22.4084 30.9883 22.427 30.9812C22.4339 30.9785 22.4408 30.9757 22.4478 30.9731C22.4618 30.9676 22.4763 30.9624 22.4914 30.9572L22.514 30.9495C22.5448 30.9391 22.5771 30.9291 22.6106 30.9196C22.6253 30.9154 22.64 30.9114 22.6552 30.9074L22.685 30.8998L22.7115 30.8933L22.7381 30.8871C22.7561 30.8829 22.7744 30.8789 22.7927 30.8749C22.8022 30.8728 22.8118 30.871 22.8216 30.8691L22.8491 30.8637C22.8587 30.8618 22.8683 30.8601 22.878 30.8583L22.9074 30.8531C22.9306 30.8489 22.9543 30.8452 22.9784 30.8419L23.0041 30.8381L23.0416 30.8328C23.0565 30.8307 23.0715 30.8287 23.0868 30.8268H23.0906C23.1079 30.8247 23.1254 30.8227 23.1429 30.8208L23.1703 30.8178C23.1757 30.8172 23.1813 30.8166 23.187 30.8162C23.1967 30.815 23.2066 30.8142 23.2163 30.8133C23.2612 30.8091 23.3069 30.8053 23.3534 30.8021L23.4081 30.799C23.4258 30.7982 23.4436 30.7973 23.4614 30.7966C23.4712 30.796 23.4814 30.7957 23.4912 30.7954C23.5139 30.7945 23.5367 30.794 23.5596 30.7933L23.5972 30.7928H23.633C23.6449 30.7928 23.6568 30.7928 23.6689 30.7928C23.6879 30.7928 23.7067 30.7928 23.7255 30.7928C23.7412 30.7928 23.7571 30.7928 23.7728 30.7934H23.7814H23.7866C23.8256 30.7942 23.864 30.7955 23.902 30.7974C23.925 30.7984 23.9477 30.7996 23.9702 30.801C24.025 30.8043 24.0788 30.8086 24.1315 30.8137L24.163 30.8167C24.1876 30.8192 24.2118 30.8219 24.236 30.8249C24.2459 30.826 24.256 30.8273 24.2659 30.8286C24.2887 30.8314 24.3116 30.8346 24.3341 30.838L24.3675 30.843C24.3784 30.8446 24.3893 30.8463 24.3997 30.8481C24.4871 30.8624 24.5703 30.8793 24.6473 30.8984C24.6569 30.9007 24.6664 30.9032 24.6758 30.9057C24.6852 30.9083 24.6944 30.9106 24.7037 30.9132L24.731 30.9208C24.7601 30.9289 24.7882 30.9376 24.8152 30.9466C24.8283 30.9508 24.841 30.9553 24.8536 30.9597L24.8592 30.9617C24.8725 30.9666 24.8854 30.9714 24.8982 30.9762C24.9391 30.9922 24.977 31.0089 25.0114 31.0266L25.0305 31.0364C25.0367 31.0396 25.0427 31.043 25.0488 31.0464C25.0607 31.0531 25.0721 31.0599 25.083 31.067L25.0982 31.0768L25.1029 31.08C25.1073 31.0829 25.1113 31.0858 25.1152 31.0888C25.1291 31.0986 25.1425 31.1092 25.1552 31.1206C25.1589 31.1237 25.1624 31.127 25.1661 31.1302C25.1698 31.1335 25.171 31.1349 25.1733 31.1373C25.1756 31.1398 25.1789 31.1428 25.1814 31.1456C25.1883 31.1527 25.1948 31.1602 25.2009 31.1681C25.2056 31.174 25.21 31.1802 25.214 31.1867C25.2184 31.1936 25.2226 31.2007 25.2263 31.208C25.2276 31.211 25.2289 31.214 25.2301 31.2169C25.2315 31.2195 25.2326 31.2222 25.2336 31.225C25.2346 31.2278 25.2357 31.2305 25.2365 31.2334C25.2393 31.2421 25.2415 31.251 25.2429 31.2601C25.2436 31.2722 25.2439 31.2843 25.2442 31.2965C25.2441 31.3109 25.2443 31.3251 25.2443 31.3393Z" fill="#C98434"/>
<path d="M25.2447 31.2835C25.2447 31.2879 25.2447 31.2922 25.2442 31.2964C25.2397 31.3352 25.224 31.3717 25.199 31.4011C25.1817 31.4226 25.1622 31.4421 25.1407 31.4592C25.0896 31.4991 25.034 31.5324 24.9751 31.5584C24.692 31.6892 24.2127 31.7751 23.6692 31.7751C23.1901 31.7751 22.761 31.7083 22.4722 31.603C22.3893 31.5744 22.3101 31.5358 22.2362 31.4879C22.2215 31.478 22.2073 31.4673 22.1937 31.4558C22.1622 31.431 22.1357 31.4002 22.1156 31.365C22.1016 31.3401 22.094 31.3119 22.0938 31.2831C22.0943 31.2501 22.104 31.218 22.1218 31.1907C22.26 30.9632 22.9004 30.791 23.6693 30.791C24.5142 30.791 25.2039 30.9988 25.243 31.2596C25.2441 31.2675 25.2447 31.2755 25.2447 31.2835Z" fill="#842121"/>
<path d="M25.1408 31.4592C25.0898 31.4991 25.0342 31.5324 24.9752 31.5583C24.6921 31.6892 24.2129 31.7751 23.6693 31.7751C23.1902 31.7751 22.7611 31.7083 22.4723 31.603C22.3895 31.5744 22.3103 31.5358 22.2363 31.4879C22.2817 31.4521 22.3297 31.4181 22.3801 31.3859C22.7296 31.1624 23.1954 31.0262 23.7074 31.0262C24.1673 31.0262 24.5904 31.1363 24.9249 31.3209C24.9998 31.362 25.072 31.4082 25.1408 31.4592Z" fill="#8F2929"/>
<path d="M24.9746 31.5585C24.6915 31.6893 24.2123 31.7752 23.6687 31.7752C23.1896 31.7752 22.7605 31.7085 22.4717 31.6031C22.8262 31.431 23.2787 31.3279 23.7716 31.3279C24.221 31.3279 24.6363 31.4134 24.9746 31.5585Z" fill="#C54848"/>
<path d="M23.7072 31.6861C23.9262 31.6861 24.1038 31.6435 24.1038 31.591C24.1038 31.5385 23.9262 31.4959 23.7072 31.4959C23.4881 31.4959 23.3105 31.5385 23.3105 31.591C23.3105 31.6435 23.4881 31.6861 23.7072 31.6861Z" fill="#420000"/>
<path d="M23.6587 31.6525C23.6587 31.6525 22.9525 31.4177 23.7024 30.1541C23.7022 30.1541 24.452 31.451 23.6587 31.6525Z" fill="#E7CF67"/>
<path d="M23.6757 30.5455C23.6757 30.5455 24.1681 31.5038 23.6472 31.6525C23.6472 31.6525 23.1833 31.479 23.6757 30.5455Z" fill="#F8C16B"/>
<path d="M23.7066 30.8504C23.7066 30.8504 24.0765 31.5698 23.6847 31.6823C23.6847 31.6823 23.3363 31.552 23.7066 30.8504Z" fill="#D96326"/>
<path d="M23.3714 32.0683C23.3714 32.0683 23.5134 32.1067 23.5059 32.251L23.5096 32.3701H23.6553L23.6591 32.1952C23.6591 32.1952 23.674 32.1029 23.7637 32.1107L23.9487 32.1145C23.9487 32.1145 24.0384 32.101 24.0551 32.0664C24.0551 32.0664 24.1019 32.0357 24.0719 32.1029C24.0719 32.1029 24.0403 32.2144 23.9225 32.2201L23.7786 32.2314L23.7749 32.3794L23.943 32.3833C23.943 32.3833 24.029 32.3929 24.029 32.5044L24.0272 32.6851C24.0272 32.6851 24.044 32.7659 24.0664 32.7812C24.0664 32.7812 24.0869 32.8139 24.0477 32.8044C24.0477 32.8044 23.973 32.7736 23.9412 32.7024C23.9256 32.6703 23.9192 32.6344 23.9225 32.5987V32.5087L23.7731 32.5049L23.7675 32.6952C23.7675 32.6952 23.7618 32.7664 23.7019 32.7664L23.4908 32.7605C23.4908 32.7605 23.4068 32.7778 23.3787 32.8029C23.3787 32.8029 23.3321 32.8067 23.3769 32.7355C23.3769 32.7355 23.4348 32.647 23.5039 32.6547L23.6515 32.6451L23.6552 32.5067L23.5023 32.5009C23.5023 32.5009 23.4052 32.5029 23.3995 32.399V32.1798C23.3936 32.148 23.3823 32.1175 23.3659 32.0899C23.3643 32.0883 23.3631 32.0863 23.3624 32.0841C23.3618 32.0819 23.3618 32.0796 23.3623 32.0774C23.3629 32.0751 23.364 32.0731 23.3656 32.0715C23.3672 32.0699 23.3692 32.0688 23.3714 32.0683Z" fill="white"/>
<path d="M23.887 32.296C23.887 32.304 23.8847 32.3118 23.8804 32.3184C23.8761 32.3251 23.87 32.3302 23.8628 32.3333C23.8556 32.3364 23.8478 32.3372 23.8402 32.3356C23.8325 32.334 23.8256 32.3302 23.8201 32.3246C23.8146 32.3189 23.8109 32.3117 23.8093 32.3039C23.8078 32.2961 23.8086 32.2879 23.8116 32.2806C23.8145 32.2732 23.8196 32.2669 23.826 32.2625C23.8325 32.258 23.8401 32.2557 23.8478 32.2557C23.8582 32.2557 23.8682 32.2599 23.8755 32.2675C23.8829 32.2751 23.887 32.2853 23.887 32.296Z" fill="white"/>
<path d="M23.6236 32.296C23.6236 32.304 23.6213 32.3119 23.617 32.3185C23.6127 32.3252 23.6065 32.3304 23.5993 32.3335C23.5922 32.3366 23.5842 32.3374 23.5766 32.3358C23.569 32.3343 23.5619 32.3304 23.5564 32.3247C23.5509 32.3191 23.5472 32.3119 23.5457 32.304C23.5442 32.2961 23.5449 32.288 23.5479 32.2806C23.5509 32.2732 23.556 32.2669 23.5625 32.2624C23.569 32.258 23.5766 32.2556 23.5844 32.2557C23.5948 32.2557 23.6047 32.2599 23.6121 32.2675C23.6194 32.2751 23.6236 32.2853 23.6236 32.296Z" fill="white"/>
<path d="M23.6216 32.5751C23.6216 32.5831 23.6194 32.591 23.615 32.5976C23.6107 32.6043 23.6046 32.6095 23.5974 32.6126C23.5902 32.6157 23.5823 32.6165 23.5747 32.6149C23.5671 32.6134 23.56 32.6095 23.5545 32.6039C23.549 32.5982 23.5453 32.591 23.5437 32.5832C23.5422 32.5753 23.543 32.5672 23.546 32.5598C23.5489 32.5524 23.554 32.546 23.5604 32.5416C23.5669 32.5371 23.5745 32.5348 23.5823 32.5348C23.5927 32.5348 23.6027 32.539 23.6101 32.5466C23.6174 32.5541 23.6216 32.5644 23.6216 32.5751Z" fill="white"/>
<path d="M23.889 32.5753C23.889 32.5833 23.8867 32.5911 23.8824 32.5977C23.8781 32.6044 23.8719 32.6095 23.8648 32.6126C23.8576 32.6157 23.8497 32.6165 23.8421 32.6149C23.8345 32.6133 23.8275 32.6095 23.822 32.6039C23.8165 32.5982 23.8128 32.591 23.8113 32.5832C23.8098 32.5754 23.8106 32.5672 23.8135 32.5599C23.8165 32.5525 23.8215 32.5462 23.828 32.5418C23.8344 32.5373 23.842 32.535 23.8498 32.535C23.8602 32.535 23.8701 32.5392 23.8775 32.5468C23.8848 32.5544 23.8889 32.5646 23.889 32.5753Z" fill="white"/>
</g>
<defs>
<filter id="filter0_f_722_16661" x="13.5" y="33.5" width="20" height="7" filterUnits="userSpaceOnUse" color-interpolation-filters="sRGB">
<feFlood flood-opacity="0" result="BackgroundImageFix"/>
<feBlend mode="normal" in="SourceGraphic" in2="BackgroundImageFix" result="shape"/>
<feGaussianBlur stdDeviation="1.25" result="effect1_foregroundBlur_722_16661"/>
</filter>
<clipPath id="clip0_722_16661">
<rect width="30" height="30" fill="white" transform="translate(9 9)"/>
</clipPath>
</defs>
</svg>
