<svg width="24" height="24" viewBox="0 0 24 24" fill="none" xmlns="http://www.w3.org/2000/svg">
<path d="M2.71765 12.0002L2.71858 12.0011L2.73965 12.0219C2.74461 12.0169 2.748 12.0105 2.74935 12.0035C2.7503 11.9985 2.7502 11.9934 2.74909 11.9886C2.74886 11.9876 2.74858 11.9865 2.74826 11.9855C2.74778 11.9846 2.74726 11.9837 2.74671 11.9828C2.74406 11.9786 2.74057 11.975 2.73646 11.9723C2.73063 11.9683 2.7238 11.9663 2.71683 11.9662L2.71668 11.9955L2.71667 11.9972L2.71666 11.9992L2.71765 12.0002ZM2.71765 12.0002L2.71935 11.9977L2.71765 12.0002ZM2.20587 11.495L2.71308 11.9957L12.5072 2.21124C12.4408 2.14431 12.3618 2.09118 12.2747 2.05492C12.1877 2.01867 12.0943 2 12 2C11.9057 2 11.8123 2.01867 11.7253 2.05492C11.6382 2.09118 11.5592 2.14431 11.4928 2.21124L2.20587 11.495ZM2.20587 11.495C2.10675 11.5955 2.0396 11.723 2.0129 11.8615C1.9862 12.0001 2.00115 12.1434 2.05585 12.2734L2.71308 12.7162V12.007V12.0034V12.0024L2.70926 11.9986L2.70571 11.995L2.20587 11.495ZM10.2502 15.9656L10.7805 16.4961L10.2502 15.9656C9.97559 16.2402 9.82124 16.6126 9.82124 17.001V21.25H6.99935C6.62979 21.25 6.27541 21.1032 6.01417 20.8421C5.75293 20.5809 5.60622 20.2268 5.60622 19.8576V12.7162V11.9662H4.85622H2.79538L12 2.76469L21.2046 11.9662H19.1438H18.3938V12.7162V19.8576C18.3938 20.2268 18.2471 20.5809 17.9858 20.8421C17.7246 21.1032 17.3702 21.25 17.0006 21.25H14.1788V17.001C14.1788 16.6126 14.0244 16.2402 13.7498 15.9656C13.4751 15.6911 13.1027 15.5369 12.7144 15.5369H11.2856C10.8973 15.5369 10.5249 15.6911 10.2502 15.9656Z" stroke="#A48AA9" stroke-width="1.5"/>
</svg>
