<svg width="24" height="24" viewBox="0 0 24 24" fill="none" xmlns="http://www.w3.org/2000/svg">
<path d="M13.935 9.03085C13.0002 7.16555 11.2145 5.79795 9.08996 5.44045L10.7503 3.82893L9.88665 1.99995H6.07811L5.21441 3.82893L6.8748 5.44045C3.73132 5.96945 1.32861 8.70997 1.32861 12.0015C1.32861 16.5165 5.76222 19.7396 10.061 18.3224C11.1805 20.5598 13.4704 22 16.0171 22C19.6809 22 22.6709 19.0419 22.6709 15.3493C22.6709 10.8256 18.2488 7.61707 13.935 9.03085ZM2.58404 12.0015C2.58404 9.02483 5.00574 6.60318 7.98238 6.60318C10.0704 6.60318 11.8852 7.79488 12.7828 9.53381C10.1084 11.0198 8.77224 14.1543 9.60862 17.1494C6.13739 18.2484 2.58404 15.6426 2.58404 12.0015ZM10.7695 16.6232C10.2199 14.3404 11.1938 11.9541 13.2283 10.7269C13.7859 13.0212 12.7885 15.4011 10.7695 16.6232ZM19.8344 19.1666C17.2473 21.7536 12.8841 21.0617 11.213 17.8165C13.9235 16.3047 15.2175 13.151 14.3891 10.2034C16.252 9.61742 18.3657 10.0635 19.8344 11.5321C21.9441 13.6419 21.9443 17.0566 19.8344 19.1666Z" fill="#541F5C" stroke="#541F5C" stroke-width="0.2"/>
</svg>
