<svg width="48" height="48" viewBox="0 0 48 48" fill="none" xmlns="http://www.w3.org/2000/svg">
<path d="M0 8C0 4.22876 0 2.34315 1.17157 1.17157C2.34315 0 4.22876 0 8 0H40C43.7712 0 45.6569 0 46.8284 1.17157C48 2.34315 48 4.22876 48 8V40C48 43.7712 48 45.6569 46.8284 46.8284C45.6569 48 43.7712 48 40 48H8C4.22876 48 2.34315 48 1.17157 46.8284C0 45.6569 0 43.7712 0 40V8Z" fill="#C9B7CB"/>
<g clip-path="url(#clip0_85_421)">
<path d="M38.0254 28.511H9.97656V16.3601C9.97656 15.6866 10.5225 15.1406 11.1961 15.1406H36.8058C37.4794 15.1406 38.0253 15.6866 38.0253 16.3601V28.511H38.0254Z" fill="#541F5C"/>
<path d="M36.8056 15.1406H35.0859C35.7595 15.1406 36.3055 15.6867 36.3055 16.3601V28.5111H38.0251V16.3601C38.0251 15.6867 37.4791 15.1406 36.8056 15.1406V15.1406Z" fill="#672C70"/>
<path d="M13.3859 11.6582L14.4389 12.8418L16.7168 10.8154L15.6638 9.63176C15.1262 9.02742 14.2005 8.97334 13.5962 9.511L13.5068 9.59051C12.9024 10.1281 12.8484 11.0539 13.3859 11.6582Z" fill="#FFDDA6"/>
<path d="M33.5612 12.8428L31.2833 10.8164L27.7995 14.7325C27.5681 14.9926 27.2366 15.1414 26.8884 15.1414H24.0003H21.1123C20.7641 15.1414 20.4325 14.9926 20.2012 14.7325L16.7173 10.8164L14.4395 12.8428L18.4445 17.3448C18.8418 17.7913 19.0613 18.3683 19.0613 18.966V25.0194H24.0003H28.8174L28.819 19.1005C28.8192 18.503 29.0386 17.9265 29.4358 17.48L33.5612 12.8428Z" fill="#0480DF"/>
<path d="M32.573 11.9648L28.499 16.5444C28.1019 16.9908 27.8824 17.5674 27.8822 18.1648L27.8809 25.0194H28.8161L28.8178 19.1005C28.818 18.503 29.0374 17.9264 29.4345 17.48L33.5599 12.8428L32.573 11.9648Z" fill="#0261AA"/>
<path d="M34.614 11.6582L33.561 12.8418L31.2832 10.8154L32.3362 9.63176C32.8738 9.02742 33.7996 8.97334 34.4038 9.511L34.4933 9.59051C35.0975 10.1281 35.1516 11.0539 34.614 11.6582Z" fill="#FFDDA6"/>
<path d="M38.4141 36.3586H9.58594C9.26232 36.3586 9 36.0963 9 35.7727V29.0974C9 28.7738 9.26232 28.5115 9.58594 28.5115H38.4141C38.7377 28.5115 39 28.7738 39 29.0974V35.7727C39 36.0963 38.7377 36.3586 38.4141 36.3586Z" fill="#541F5C"/>
<path d="M36.7846 29.7031H11.2148C10.9721 29.7031 10.7754 29.8998 10.7754 30.1426V34.2085C10.7754 34.4512 10.9721 34.6479 11.2148 34.6479H36.7846C37.0273 34.6479 37.224 34.4512 37.224 34.2085V30.1426C37.224 29.8999 37.0273 29.7031 36.7846 29.7031ZM36.3451 33.7691H11.6543V30.582H36.3451V33.7691Z" fill="#672C70"/>
<path d="M38.4133 28.5117H37.1699V36.3589H38.4133C38.7369 36.3589 38.9992 36.0966 38.9992 35.7729V29.0977C38.9992 28.774 38.7369 28.5117 38.4133 28.5117Z" fill="#672C70"/>
<path d="M36.5069 38.8594H34.4139C34.1356 38.8594 33.8934 38.6691 33.8275 38.3988L33.3301 36.3594H37.1105V38.2558C37.1105 38.5892 36.8403 38.8594 36.5069 38.8594V38.8594Z" fill="#672C70"/>
<path d="M11.4943 38.8594H13.5873C13.8655 38.8594 14.1078 38.6691 14.1737 38.3988L14.6711 36.3594H10.8906V38.2558C10.8906 38.5892 11.1609 38.8594 11.4943 38.8594V38.8594Z" fill="#672C70"/>
<path d="M26.5008 11.85C26.5008 10.4356 25.3543 9.28906 23.9399 9.28906C22.5255 9.28906 21.3789 10.4356 21.3789 11.85V13.1915C21.3789 14.6059 22.5255 15.7524 23.9399 15.7524C25.3543 15.7524 26.5008 14.6059 26.5008 13.1915V11.85Z" fill="#FFDDA6"/>
<path d="M23.9382 9.28906C23.7607 9.28906 23.5873 9.30717 23.4199 9.34156C24.5858 9.58121 25.4626 10.6132 25.4626 11.85V13.1915C25.4626 14.4283 24.5858 15.4603 23.4199 15.6999C23.5873 15.7343 23.7606 15.7524 23.9382 15.7524C25.3526 15.7524 26.4992 14.6059 26.4992 13.1915V11.85C26.4993 10.4356 25.3526 9.28906 23.9382 9.28906V9.28906Z" fill="#FCC368"/>
<path d="M36.0742 25.0182H32.3371C31.7313 25.0182 31.1774 24.6759 30.9065 24.1341C30.6355 23.5922 30.0817 23.25 29.4759 23.25H18.648C18.0422 23.25 17.4884 23.5923 17.2175 24.1341C16.9465 24.676 16.3927 25.0182 15.7869 25.0182H11.9278C10.8501 25.0182 9.97656 25.8918 9.97656 26.9695V28.5106H38.0254V26.9695C38.0254 25.8918 37.1518 25.0182 36.0742 25.0182Z" fill="#FAFAFA"/>
<path d="M36.073 25.0195H34.1816C35.2593 25.0195 36.1329 25.8931 36.1329 26.9708V28.512H38.0242V26.9708C38.0242 25.8931 37.1506 25.0195 36.073 25.0195Z" fill="#E6E6E6"/>
<path d="M34.4597 9.56365L34.4363 9.54285C34.2875 9.41049 34.1197 9.31334 33.943 9.25C34.1208 9.75168 34.0274 10.3323 33.6486 10.7581L32.5527 11.9478L33.5605 12.8443L34.5842 11.6937C35.138 11.0712 35.0823 10.1175 34.4597 9.56365V9.56365Z" fill="#FCC368"/>
</g>
<defs>
<clipPath id="clip0_85_421">
<rect width="30" height="30" fill="white" transform="translate(9 9)"/>
</clipPath>
</defs>
</svg>
